<svg xmlns="http://www.w3.org/2000/svg" width="1600" height="900" viewBox="0 0 1600 900">
<defs>
  <linearGradient id="g" x1="0" y1="0" x2="0" y2="1">
    <stop offset="0" stop-color="#162031"/>
    <stop offset="1" stop-color="#07070d"/>
  </linearGradient>
  <filter id="grain">
    <feTurbulence type="fractalNoise" baseFrequency="0.8" numOctaves="2" stitchTiles="stitch"/>
    <feColorMatrix type="matrix" values="1 0 0 0 0  0 1 0 0 0  0 0 1 0 0  0 0 0 .08 0"/>
  </filter>
</defs>
<rect width="1600" height="900" fill="url(#g)"/>
<circle cx="1091" cy="271" r="87" fill="#ff4d8d" opacity="0.17"/><circle cx="1221" cy="13" r="16" fill="#ff4d8d" opacity="0.148"/><circle cx="167" cy="365" r="85" fill="#ff4d8d" opacity="0.083"/><circle cx="544" cy="67" r="9" fill="#ff4d8d" opacity="0.06"/><circle cx="425" cy="767" r="61" fill="#ff4d8d" opacity="0.158"/><circle cx="1524" cy="-39" r="41" fill="#b7b7ff" opacity="0.113"/><circle cx="232" cy="674" r="65" fill="#ff4d8d" opacity="0.11"/><circle cx="1521" cy="184" r="37" fill="#b7b7ff" opacity="0.044"/><circle cx="1499" cy="862" r="81" fill="#7c5cff" opacity="0.056"/><circle cx="10" cy="680" r="23" fill="#7c5cff" opacity="0.133"/><circle cx="236" cy="997" r="12" fill="#ff4d8d" opacity="0.165"/><circle cx="410" cy="844" r="43" fill="#b7b7ff" opacity="0.178"/><circle cx="34" cy="499" r="25" fill="#7c5cff" opacity="0.067"/><circle cx="1070" cy="578" r="85" fill="#7c5cff" opacity="0.099"/><circle cx="917" cy="364" r="48" fill="#7c5cff" opacity="0.146"/><circle cx="890" cy="105" r="29" fill="#7c5cff" opacity="0.109"/><circle cx="557" cy="861" r="95" fill="#b7b7ff" opacity="0.043"/><circle cx="450" cy="511" r="105" fill="#b7b7ff" opacity="0.171"/><circle cx="1259" cy="907" r="89" fill="#b7b7ff" opacity="0.072"/><circle cx="1560" cy="980" r="84" fill="#7c5cff" opacity="0.169"/><circle cx="1617" cy="217" r="40" fill="#b7b7ff" opacity="0.102"/><circle cx="564" cy="959" r="50" fill="#7c5cff" opacity="0.119"/><circle cx="1415" cy="822" r="17" fill="#7c5cff" opacity="0.113"/><circle cx="1051" cy="634" r="98" fill="#ff4d8d" opacity="0.153"/><circle cx="721" cy="968" r="64" fill="#b7b7ff" opacity="0.064"/><circle cx="1570" cy="400" r="94" fill="#ff4d8d" opacity="0.142"/><circle cx="1040" cy="170" r="114" fill="#b7b7ff" opacity="0.122"/><circle cx="497" cy="-81" r="47" fill="#b7b7ff" opacity="0.16"/><circle cx="548" cy="966" r="87" fill="#ff4d8d" opacity="0.059"/><circle cx="406" cy="824" r="46" fill="#7c5cff" opacity="0.1"/><circle cx="1038" cy="691" r="39" fill="#7c5cff" opacity="0.168"/><circle cx="435" cy="656" r="98" fill="#b7b7ff" opacity="0.12"/><circle cx="248" cy="34" r="41" fill="#b7b7ff" opacity="0.106"/><circle cx="101" cy="-81" r="42" fill="#ff4d8d" opacity="0.043"/><circle cx="1566" cy="182" r="48" fill="#7c5cff" opacity="0.09"/><circle cx="1242" cy="828" r="110" fill="#b7b7ff" opacity="0.08"/><circle cx="1418" cy="124" r="120" fill="#7c5cff" opacity="0.179"/><circle cx="1344" cy="302" r="111" fill="#b7b7ff" opacity="0.111"/><circle cx="345" cy="763" r="29" fill="#b7b7ff" opacity="0.169"/><circle cx="197" cy="714" r="112" fill="#ff4d8d" opacity="0.042"/><circle cx="1115" cy="740" r="38" fill="#7c5cff" opacity="0.172"/><circle cx="43" cy="579" r="61" fill="#7c5cff" opacity="0.058"/><circle cx="298" cy="320" r="64" fill="#ff4d8d" opacity="0.094"/><circle cx="210" cy="518" r="62" fill="#7c5cff" opacity="0.178"/><circle cx="1179" cy="468" r="65" fill="#ff4d8d" opacity="0.075"/><circle cx="1183" cy="565" r="31" fill="#b7b7ff" opacity="0.136"/><circle cx="179" cy="865" r="55" fill="#b7b7ff" opacity="0.116"/><circle cx="456" cy="629" r="81" fill="#ff4d8d" opacity="0.174"/><circle cx="1474" cy="47" r="14" fill="#b7b7ff" opacity="0.175"/><circle cx="695" cy="975" r="34" fill="#b7b7ff" opacity="0.111"/><circle cx="1109" cy="553" r="70" fill="#7c5cff" opacity="0.043"/><circle cx="1589" cy="-33" r="28" fill="#b7b7ff" opacity="0.062"/><circle cx="213" cy="626" r="109" fill="#7c5cff" opacity="0.118"/><circle cx="1057" cy="912" r="18" fill="#b7b7ff" opacity="0.175"/><circle cx="882" cy="586" r="103" fill="#7c5cff" opacity="0.093"/><circle cx="186" cy="659" r="73" fill="#ff4d8d" opacity="0.169"/><circle cx="647" cy="-94" r="20" fill="#ff4d8d" opacity="0.17"/><circle cx="1404" cy="-41" r="32" fill="#b7b7ff" opacity="0.062"/><circle cx="819" cy="258" r="75" fill="#ff4d8d" opacity="0.092"/><circle cx="522" cy="678" r="81" fill="#7c5cff" opacity="0.14"/><circle cx="1013" cy="622" r="98" fill="#7c5cff" opacity="0.145"/><circle cx="884" cy="197" r="107" fill="#ff4d8d" opacity="0.132"/><circle cx="1305" cy="672" r="71" fill="#7c5cff" opacity="0.17"/><circle cx="197" cy="991" r="14" fill="#b7b7ff" opacity="0.136"/><circle cx="945" cy="-94" r="20" fill="#b7b7ff" opacity="0.066"/><circle cx="757" cy="95" r="75" fill="#b7b7ff" opacity="0.103"/><circle cx="16" cy="357" r="84" fill="#7c5cff" opacity="0.159"/><circle cx="935" cy="117" r="9" fill="#b7b7ff" opacity="0.098"/><circle cx="261" cy="572" r="110" fill="#b7b7ff" opacity="0.07"/><circle cx="1442" cy="189" r="85" fill="#ff4d8d" opacity="0.127"/><circle cx="839" cy="414" r="118" fill="#b7b7ff" opacity="0.152"/><circle cx="1700" cy="995" r="10" fill="#b7b7ff" opacity="0.125"/><circle cx="764" cy="-42" r="24" fill="#7c5cff" opacity="0.145"/><circle cx="232" cy="304" r="67" fill="#7c5cff" opacity="0.07"/><circle cx="1097" cy="35" r="114" fill="#7c5cff" opacity="0.139"/><circle cx="1117" cy="856" r="8" fill="#7c5cff" opacity="0.053"/><circle cx="1317" cy="470" r="97" fill="#b7b7ff" opacity="0.12"/><circle cx="1198" cy="920" r="111" fill="#7c5cff" opacity="0.07"/><circle cx="708" cy="0" r="54" fill="#7c5cff" opacity="0.065"/><circle cx="1427" cy="1000" r="75" fill="#7c5cff" opacity="0.113"/><circle cx="675" cy="712" r="78" fill="#ff4d8d" opacity="0.087"/><circle cx="416" cy="12" r="17" fill="#7c5cff" opacity="0.095"/><circle cx="670" cy="662" r="60" fill="#7c5cff" opacity="0.08"/><circle cx="-64" cy="253" r="31" fill="#ff4d8d" opacity="0.139"/><circle cx="516" cy="184" r="29" fill="#ff4d8d" opacity="0.175"/><circle cx="1192" cy="904" r="80" fill="#ff4d8d" opacity="0.166"/><circle cx="1164" cy="490" r="33" fill="#7c5cff" opacity="0.059"/><circle cx="898" cy="101" r="14" fill="#7c5cff" opacity="0.062"/><circle cx="75" cy="988" r="56" fill="#ff4d8d" opacity="0.04"/><circle cx="1385" cy="154" r="120" fill="#b7b7ff" opacity="0.05"/><circle cx="287" cy="269" r="20" fill="#b7b7ff" opacity="0.145"/><circle cx="421" cy="207" r="8" fill="#7c5cff" opacity="0.176"/><circle cx="626" cy="340" r="107" fill="#7c5cff" opacity="0.147"/><circle cx="1567" cy="426" r="109" fill="#ff4d8d" opacity="0.078"/><circle cx="974" cy="756" r="72" fill="#ff4d8d" opacity="0.103"/><circle cx="572" cy="795" r="105" fill="#b7b7ff" opacity="0.175"/><circle cx="250" cy="-38" r="108" fill="#ff4d8d" opacity="0.157"/><circle cx="758" cy="672" r="48" fill="#7c5cff" opacity="0.106"/><circle cx="13" cy="-80" r="33" fill="#7c5cff" opacity="0.127"/><circle cx="552" cy="469" r="23" fill="#ff4d8d" opacity="0.128"/><circle cx="504" cy="299" r="109" fill="#ff4d8d" opacity="0.053"/><circle cx="631" cy="752" r="83" fill="#7c5cff" opacity="0.124"/><circle cx="-11" cy="410" r="113" fill="#b7b7ff" opacity="0.084"/><circle cx="323" cy="701" r="47" fill="#7c5cff" opacity="0.052"/><circle cx="1636" cy="840" r="53" fill="#b7b7ff" opacity="0.088"/><circle cx="763" cy="651" r="93" fill="#ff4d8d" opacity="0.161"/><circle cx="1099" cy="-97" r="62" fill="#ff4d8d" opacity="0.046"/><circle cx="795" cy="992" r="61" fill="#7c5cff" opacity="0.059"/><circle cx="1656" cy="518" r="97" fill="#b7b7ff" opacity="0.053"/><circle cx="838" cy="676" r="73" fill="#b7b7ff" opacity="0.11"/><circle cx="-50" cy="664" r="65" fill="#ff4d8d" opacity="0.067"/><circle cx="1142" cy="285" r="17" fill="#ff4d8d" opacity="0.09"/><circle cx="1102" cy="773" r="107" fill="#7c5cff" opacity="0.148"/><circle cx="50" cy="820" r="19" fill="#b7b7ff" opacity="0.177"/><circle cx="380" cy="892" r="54" fill="#7c5cff" opacity="0.165"/><circle cx="1655" cy="496" r="71" fill="#ff4d8d" opacity="0.172"/><circle cx="1417" cy="630" r="22" fill="#7c5cff" opacity="0.085"/><circle cx="862" cy="519" r="31" fill="#ff4d8d" opacity="0.048"/><circle cx="-6" cy="556" r="12" fill="#7c5cff" opacity="0.121"/><circle cx="-39" cy="338" r="12" fill="#7c5cff" opacity="0.108"/><circle cx="979" cy="387" r="68" fill="#b7b7ff" opacity="0.065"/><circle cx="444" cy="649" r="74" fill="#ff4d8d" opacity="0.127"/><circle cx="121" cy="528" r="118" fill="#7c5cff" opacity="0.156"/><circle cx="395" cy="298" r="48" fill="#ff4d8d" opacity="0.179"/><circle cx="51" cy="945" r="101" fill="#ff4d8d" opacity="0.147"/><circle cx="616" cy="379" r="13" fill="#b7b7ff" opacity="0.045"/><circle cx="391" cy="133" r="95" fill="#b7b7ff" opacity="0.098"/><circle cx="325" cy="132" r="58" fill="#b7b7ff" opacity="0.109"/><circle cx="738" cy="324" r="107" fill="#7c5cff" opacity="0.16"/><circle cx="1660" cy="27" r="101" fill="#ff4d8d" opacity="0.063"/><circle cx="-36" cy="383" r="71" fill="#b7b7ff" opacity="0.082"/><circle cx="559" cy="320" r="106" fill="#7c5cff" opacity="0.074"/><circle cx="1069" cy="686" r="27" fill="#ff4d8d" opacity="0.099"/><circle cx="0" cy="607" r="35" fill="#7c5cff" opacity="0.152"/><circle cx="1002" cy="309" r="22" fill="#ff4d8d" opacity="0.054"/><circle cx="1571" cy="-39" r="97" fill="#7c5cff" opacity="0.119"/><circle cx="203" cy="47" r="75" fill="#ff4d8d" opacity="0.106"/><circle cx="805" cy="903" r="103" fill="#ff4d8d" opacity="0.119"/><circle cx="767" cy="-3" r="100" fill="#b7b7ff" opacity="0.16"/><circle cx="173" cy="955" r="102" fill="#7c5cff" opacity="0.091"/><circle cx="1253" cy="922" r="69" fill="#ff4d8d" opacity="0.136"/><circle cx="1625" cy="303" r="32" fill="#ff4d8d" opacity="0.091"/><circle cx="896" cy="249" r="71" fill="#7c5cff" opacity="0.097"/><circle cx="1478" cy="81" r="29" fill="#7c5cff" opacity="0.085"/><circle cx="1112" cy="36" r="46" fill="#ff4d8d" opacity="0.165"/><circle cx="421" cy="29" r="24" fill="#7c5cff" opacity="0.125"/><circle cx="284" cy="810" r="37" fill="#7c5cff" opacity="0.15"/><circle cx="1460" cy="816" r="46" fill="#ff4d8d" opacity="0.127"/><circle cx="54" cy="-14" r="83" fill="#ff4d8d" opacity="0.16"/><circle cx="6" cy="-62" r="11" fill="#7c5cff" opacity="0.047"/><circle cx="1377" cy="551" r="101" fill="#7c5cff" opacity="0.119"/><circle cx="104" cy="97" r="73" fill="#b7b7ff" opacity="0.097"/><circle cx="1055" cy="-32" r="107" fill="#b7b7ff" opacity="0.068"/><circle cx="474" cy="584" r="97" fill="#b7b7ff" opacity="0.046"/><circle cx="845" cy="407" r="14" fill="#ff4d8d" opacity="0.167"/><circle cx="419" cy="536" r="54" fill="#ff4d8d" opacity="0.09"/><circle cx="806" cy="391" r="80" fill="#ff4d8d" opacity="0.137"/><circle cx="1321" cy="401" r="115" fill="#7c5cff" opacity="0.116"/><circle cx="1371" cy="335" r="81" fill="#b7b7ff" opacity="0.053"/><circle cx="1675" cy="724" r="35" fill="#ff4d8d" opacity="0.118"/><circle cx="1569" cy="662" r="82" fill="#ff4d8d" opacity="0.074"/><circle cx="1006" cy="398" r="55" fill="#ff4d8d" opacity="0.111"/><circle cx="-50" cy="58" r="95" fill="#b7b7ff" opacity="0.129"/><circle cx="706" cy="262" r="16" fill="#b7b7ff" opacity="0.082"/><circle cx="988" cy="362" r="56" fill="#ff4d8d" opacity="0.096"/><circle cx="196" cy="447" r="113" fill="#7c5cff" opacity="0.103"/><circle cx="1611" cy="663" r="81" fill="#ff4d8d" opacity="0.063"/><circle cx="1405" cy="205" r="65" fill="#7c5cff" opacity="0.165"/><circle cx="146" cy="600" r="15" fill="#b7b7ff" opacity="0.117"/><circle cx="282" cy="402" r="84" fill="#ff4d8d" opacity="0.135"/><circle cx="222" cy="751" r="78" fill="#7c5cff" opacity="0.103"/><circle cx="353" cy="659" r="52" fill="#7c5cff" opacity="0.112"/><circle cx="268" cy="-26" r="45" fill="#b7b7ff" opacity="0.09"/><circle cx="1264" cy="176" r="114" fill="#b7b7ff" opacity="0.082"/><circle cx="1358" cy="910" r="83" fill="#b7b7ff" opacity="0.169"/><circle cx="633" cy="13" r="87" fill="#7c5cff" opacity="0.157"/><circle cx="486" cy="555" r="115" fill="#b7b7ff" opacity="0.111"/><circle cx="1180" cy="109" r="47" fill="#b7b7ff" opacity="0.073"/><circle cx="778" cy="280" r="84" fill="#ff4d8d" opacity="0.169"/><circle cx="679" cy="751" r="104" fill="#b7b7ff" opacity="0.048"/>
<rect width="1600" height="900" filter="url(#grain)" opacity="0.7"/>
</svg>