<svg xmlns="http://www.w3.org/2000/svg" width="1600" height="900" viewBox="0 0 1600 900">
<defs>
  <linearGradient id="g" x1="0" y1="0" x2="0" y2="1">
    <stop offset="0" stop-color="#1a0f14"/>
    <stop offset="1" stop-color="#07070d"/>
  </linearGradient>
  <filter id="grain">
    <feTurbulence type="fractalNoise" baseFrequency="0.8" numOctaves="2" stitchTiles="stitch"/>
    <feColorMatrix type="matrix" values="1 0 0 0 0  0 1 0 0 0  0 0 1 0 0  0 0 0 .08 0"/>
  </filter>
</defs>
<rect width="1600" height="900" fill="url(#g)"/>
<circle cx="538" cy="752" r="104" fill="#7c5cff" opacity="0.131"/><circle cx="58" cy="752" r="29" fill="#ff4d8d" opacity="0.055"/><circle cx="311" cy="613" r="43" fill="#ffd166" opacity="0.129"/><circle cx="556" cy="706" r="90" fill="#ffd166" opacity="0.131"/><circle cx="811" cy="752" r="90" fill="#ff4d8d" opacity="0.122"/><circle cx="717" cy="275" r="19" fill="#ffd166" opacity="0.127"/><circle cx="1484" cy="97" r="59" fill="#ffd166" opacity="0.136"/><circle cx="694" cy="792" r="31" fill="#7c5cff" opacity="0.077"/><circle cx="560" cy="814" r="105" fill="#7c5cff" opacity="0.091"/><circle cx="-27" cy="-52" r="39" fill="#ff4d8d" opacity="0.102"/><circle cx="1226" cy="755" r="81" fill="#ff4d8d" opacity="0.093"/><circle cx="-61" cy="252" r="120" fill="#ffd166" opacity="0.112"/><circle cx="1463" cy="622" r="38" fill="#7c5cff" opacity="0.173"/><circle cx="791" cy="32" r="111" fill="#ffd166" opacity="0.146"/><circle cx="1323" cy="-99" r="23" fill="#7c5cff" opacity="0.149"/><circle cx="665" cy="193" r="82" fill="#ffd166" opacity="0.14"/><circle cx="1329" cy="217" r="19" fill="#ff4d8d" opacity="0.101"/><circle cx="565" cy="24" r="44" fill="#7c5cff" opacity="0.163"/><circle cx="547" cy="741" r="80" fill="#ff4d8d" opacity="0.092"/><circle cx="1216" cy="183" r="41" fill="#ffd166" opacity="0.166"/><circle cx="423" cy="645" r="117" fill="#ffd166" opacity="0.172"/><circle cx="858" cy="825" r="13" fill="#ffd166" opacity="0.135"/><circle cx="686" cy="647" r="113" fill="#7c5cff" opacity="0.171"/><circle cx="152" cy="964" r="9" fill="#7c5cff" opacity="0.077"/><circle cx="704" cy="-92" r="88" fill="#7c5cff" opacity="0.104"/><circle cx="-84" cy="74" r="24" fill="#ff4d8d" opacity="0.071"/><circle cx="1151" cy="448" r="17" fill="#7c5cff" opacity="0.132"/><circle cx="459" cy="131" r="76" fill="#ffd166" opacity="0.13"/><circle cx="1403" cy="89" r="47" fill="#7c5cff" opacity="0.08"/><circle cx="31" cy="394" r="32" fill="#ffd166" opacity="0.146"/><circle cx="235" cy="111" r="14" fill="#ffd166" opacity="0.068"/><circle cx="187" cy="350" r="8" fill="#7c5cff" opacity="0.128"/><circle cx="593" cy="481" r="109" fill="#7c5cff" opacity="0.07"/><circle cx="528" cy="950" r="16" fill="#ff4d8d" opacity="0.081"/><circle cx="861" cy="-38" r="24" fill="#ff4d8d" opacity="0.128"/><circle cx="1227" cy="431" r="94" fill="#7c5cff" opacity="0.122"/><circle cx="731" cy="-8" r="11" fill="#ff4d8d" opacity="0.048"/><circle cx="1020" cy="567" r="118" fill="#ffd166" opacity="0.138"/><circle cx="-87" cy="621" r="67" fill="#ffd166" opacity="0.151"/><circle cx="697" cy="-26" r="101" fill="#ff4d8d" opacity="0.046"/><circle cx="1174" cy="358" r="55" fill="#7c5cff" opacity="0.166"/><circle cx="759" cy="299" r="114" fill="#ff4d8d" opacity="0.171"/><circle cx="375" cy="206" r="78" fill="#ff4d8d" opacity="0.078"/><circle cx="-99" cy="641" r="82" fill="#ff4d8d" opacity="0.071"/><circle cx="457" cy="885" r="61" fill="#ffd166" opacity="0.151"/><circle cx="248" cy="831" r="20" fill="#7c5cff" opacity="0.091"/><circle cx="-58" cy="306" r="56" fill="#7c5cff" opacity="0.148"/><circle cx="-5" cy="865" r="9" fill="#ff4d8d" opacity="0.106"/><circle cx="1371" cy="542" r="94" fill="#ffd166" opacity="0.064"/><circle cx="404" cy="312" r="101" fill="#7c5cff" opacity="0.076"/><circle cx="1401" cy="861" r="97" fill="#7c5cff" opacity="0.046"/><circle cx="534" cy="237" r="100" fill="#ff4d8d" opacity="0.045"/><circle cx="146" cy="769" r="100" fill="#ffd166" opacity="0.06"/><circle cx="532" cy="709" r="106" fill="#7c5cff" opacity="0.159"/><circle cx="930" cy="291" r="66" fill="#ffd166" opacity="0.062"/><circle cx="431" cy="998" r="113" fill="#7c5cff" opacity="0.141"/><circle cx="1071" cy="-93" r="12" fill="#ffd166" opacity="0.173"/><circle cx="318" cy="945" r="69" fill="#ff4d8d" opacity="0.127"/><circle cx="1279" cy="472" r="44" fill="#7c5cff" opacity="0.13"/><circle cx="1516" cy="581" r="105" fill="#7c5cff" opacity="0.149"/><circle cx="1101" cy="813" r="73" fill="#7c5cff" opacity="0.147"/><circle cx="459" cy="619" r="17" fill="#ffd166" opacity="0.087"/><circle cx="1362" cy="272" r="74" fill="#ffd166" opacity="0.13"/><circle cx="1023" cy="63" r="60" fill="#ffd166" opacity="0.051"/><circle cx="816" cy="492" r="14" fill="#ff4d8d" opacity="0.151"/><circle cx="1391" cy="248" r="56" fill="#ffd166" opacity="0.097"/><circle cx="1419" cy="206" r="31" fill="#ffd166" opacity="0.085"/><circle cx="864" cy="468" r="68" fill="#ff4d8d" opacity="0.147"/><circle cx="402" cy="475" r="63" fill="#ff4d8d" opacity="0.091"/><circle cx="1570" cy="-48" r="86" fill="#7c5cff" opacity="0.126"/><circle cx="1135" cy="332" r="94" fill="#ffd166" opacity="0.052"/><circle cx="1300" cy="53" r="119" fill="#7c5cff" opacity="0.095"/><circle cx="686" cy="194" r="18" fill="#ffd166" opacity="0.058"/><circle cx="1464" cy="429" r="74" fill="#ffd166" opacity="0.145"/><circle cx="1114" cy="649" r="111" fill="#ff4d8d" opacity="0.058"/><circle cx="1088" cy="482" r="96" fill="#7c5cff" opacity="0.063"/><circle cx="799" cy="845" r="67" fill="#ffd166" opacity="0.043"/><circle cx="1149" cy="233" r="18" fill="#ff4d8d" opacity="0.176"/><circle cx="1525" cy="194" r="52" fill="#ffd166" opacity="0.126"/><circle cx="718" cy="632" r="25" fill="#7c5cff" opacity="0.123"/><circle cx="-96" cy="560" r="30" fill="#ffd166" opacity="0.046"/><circle cx="27" cy="298" r="11" fill="#ffd166" opacity="0.16"/><circle cx="552" cy="782" r="73" fill="#7c5cff" opacity="0.086"/><circle cx="1125" cy="925" r="30" fill="#ff4d8d" opacity="0.164"/><circle cx="381" cy="889" r="17" fill="#ff4d8d" opacity="0.05"/><circle cx="-42" cy="411" r="120" fill="#ff4d8d" opacity="0.179"/><circle cx="683" cy="-25" r="45" fill="#7c5cff" opacity="0.178"/><circle cx="1090" cy="572" r="62" fill="#ff4d8d" opacity="0.122"/><circle cx="900" cy="108" r="24" fill="#ff4d8d" opacity="0.158"/><circle cx="703" cy="576" r="82" fill="#7c5cff" opacity="0.079"/><circle cx="889" cy="736" r="38" fill="#ff4d8d" opacity="0.153"/><circle cx="-17" cy="526" r="28" fill="#7c5cff" opacity="0.165"/><circle cx="99" cy="162" r="41" fill="#7c5cff" opacity="0.066"/><circle cx="1420" cy="357" r="67" fill="#ff4d8d" opacity="0.092"/><circle cx="1066" cy="988" r="119" fill="#ffd166" opacity="0.164"/><circle cx="814" cy="728" r="49" fill="#ffd166" opacity="0.165"/><circle cx="1374" cy="410" r="85" fill="#7c5cff" opacity="0.106"/><circle cx="976" cy="852" r="38" fill="#7c5cff" opacity="0.12"/><circle cx="569" cy="137" r="91" fill="#ff4d8d" opacity="0.069"/><circle cx="-18" cy="771" r="97" fill="#ff4d8d" opacity="0.063"/><circle cx="1438" cy="-22" r="19" fill="#ff4d8d" opacity="0.068"/><circle cx="516" cy="1000" r="110" fill="#ffd166" opacity="0.118"/><circle cx="1520" cy="765" r="11" fill="#7c5cff" opacity="0.153"/><circle cx="881" cy="513" r="67" fill="#7c5cff" opacity="0.128"/><circle cx="332" cy="154" r="51" fill="#ffd166" opacity="0.107"/><circle cx="870" cy="30" r="37" fill="#ffd166" opacity="0.047"/><circle cx="417" cy="383" r="119" fill="#7c5cff" opacity="0.105"/><circle cx="1658" cy="151" r="83" fill="#7c5cff" opacity="0.13"/><circle cx="953" cy="21" r="88" fill="#ff4d8d" opacity="0.046"/><circle cx="1696" cy="810" r="30" fill="#ff4d8d" opacity="0.096"/><circle cx="638" cy="475" r="11" fill="#7c5cff" opacity="0.171"/><circle cx="789" cy="782" r="20" fill="#7c5cff" opacity="0.061"/><circle cx="382" cy="760" r="52" fill="#ff4d8d" opacity="0.158"/><circle cx="801" cy="946" r="43" fill="#ff4d8d" opacity="0.165"/><circle cx="1321" cy="450" r="60" fill="#ffd166" opacity="0.165"/><circle cx="671" cy="622" r="95" fill="#ffd166" opacity="0.092"/><circle cx="542" cy="392" r="77" fill="#ff4d8d" opacity="0.134"/><circle cx="689" cy="216" r="36" fill="#ff4d8d" opacity="0.055"/><circle cx="950" cy="202" r="15" fill="#ffd166" opacity="0.087"/><circle cx="686" cy="448" r="64" fill="#ff4d8d" opacity="0.064"/><circle cx="798" cy="718" r="102" fill="#ffd166" opacity="0.121"/><circle cx="-69" cy="325" r="55" fill="#ff4d8d" opacity="0.169"/><circle cx="397" cy="209" r="63" fill="#ffd166" opacity="0.097"/><circle cx="1588" cy="887" r="13" fill="#7c5cff" opacity="0.05"/><circle cx="361" cy="132" r="13" fill="#ffd166" opacity="0.056"/><circle cx="853" cy="-89" r="80" fill="#ff4d8d" opacity="0.151"/><circle cx="982" cy="898" r="31" fill="#7c5cff" opacity="0.153"/><circle cx="1562" cy="-8" r="86" fill="#ffd166" opacity="0.164"/><circle cx="68" cy="737" r="88" fill="#ff4d8d" opacity="0.075"/><circle cx="1181" cy="789" r="98" fill="#ff4d8d" opacity="0.109"/><circle cx="1622" cy="729" r="115" fill="#7c5cff" opacity="0.147"/><circle cx="1281" cy="950" r="36" fill="#ffd166" opacity="0.106"/><circle cx="602" cy="312" r="40" fill="#7c5cff" opacity="0.114"/><circle cx="1640" cy="478" r="110" fill="#7c5cff" opacity="0.111"/><circle cx="1403" cy="33" r="17" fill="#7c5cff" opacity="0.052"/><circle cx="1508" cy="207" r="91" fill="#7c5cff" opacity="0.085"/><circle cx="1699" cy="754" r="61" fill="#7c5cff" opacity="0.088"/><circle cx="546" cy="521" r="58" fill="#ff4d8d" opacity="0.068"/><circle cx="560" cy="184" r="19" fill="#7c5cff" opacity="0.048"/><circle cx="890" cy="622" r="60" fill="#7c5cff" opacity="0.144"/><circle cx="35" cy="567" r="97" fill="#7c5cff" opacity="0.171"/><circle cx="1115" cy="-67" r="81" fill="#ff4d8d" opacity="0.179"/><circle cx="1026" cy="760" r="23" fill="#7c5cff" opacity="0.105"/><circle cx="104" cy="3" r="69" fill="#7c5cff" opacity="0.103"/><circle cx="700" cy="915" r="52" fill="#7c5cff" opacity="0.115"/><circle cx="324" cy="225" r="74" fill="#ff4d8d" opacity="0.065"/><circle cx="859" cy="822" r="82" fill="#ff4d8d" opacity="0.15"/><circle cx="947" cy="890" r="103" fill="#ffd166" opacity="0.102"/><circle cx="1308" cy="649" r="12" fill="#ff4d8d" opacity="0.12"/><circle cx="321" cy="349" r="96" fill="#ff4d8d" opacity="0.176"/><circle cx="583" cy="485" r="48" fill="#ffd166" opacity="0.16"/><circle cx="413" cy="429" r="22" fill="#7c5cff" opacity="0.12"/><circle cx="1666" cy="239" r="54" fill="#7c5cff" opacity="0.114"/><circle cx="1534" cy="196" r="70" fill="#ff4d8d" opacity="0.122"/><circle cx="523" cy="968" r="70" fill="#ff4d8d" opacity="0.161"/><circle cx="1355" cy="641" r="22" fill="#ff4d8d" opacity="0.172"/><circle cx="1674" cy="641" r="37" fill="#ff4d8d" opacity="0.151"/><circle cx="271" cy="945" r="47" fill="#7c5cff" opacity="0.172"/><circle cx="844" cy="166" r="12" fill="#ffd166" opacity="0.11"/><circle cx="783" cy="172" r="49" fill="#ffd166" opacity="0.095"/><circle cx="-75" cy="91" r="112" fill="#7c5cff" opacity="0.046"/><circle cx="1648" cy="211" r="11" fill="#7c5cff" opacity="0.093"/><circle cx="607" cy="109" r="92" fill="#7c5cff" opacity="0.059"/><circle cx="1432" cy="182" r="81" fill="#ffd166" opacity="0.107"/><circle cx="1230" cy="615" r="10" fill="#ff4d8d" opacity="0.092"/><circle cx="1137" cy="711" r="78" fill="#7c5cff" opacity="0.127"/><circle cx="711" cy="154" r="31" fill="#ff4d8d" opacity="0.064"/><circle cx="-26" cy="24" r="120" fill="#ffd166" opacity="0.047"/><circle cx="1067" cy="988" r="89" fill="#ffd166" opacity="0.091"/><circle cx="-88" cy="701" r="8" fill="#ffd166" opacity="0.105"/><circle cx="1416" cy="558" r="35" fill="#ff4d8d" opacity="0.072"/><circle cx="417" cy="961" r="19" fill="#ff4d8d" opacity="0.115"/><circle cx="1433" cy="361" r="51" fill="#ffd166" opacity="0.102"/><circle cx="1223" cy="255" r="80" fill="#7c5cff" opacity="0.148"/><circle cx="1181" cy="215" r="63" fill="#ffd166" opacity="0.082"/><circle cx="182" cy="435" r="33" fill="#7c5cff" opacity="0.116"/><circle cx="1004" cy="109" r="113" fill="#7c5cff" opacity="0.076"/><circle cx="1014" cy="553" r="105" fill="#ffd166" opacity="0.126"/><circle cx="813" cy="186" r="100" fill="#7c5cff" opacity="0.089"/><circle cx="500" cy="20" r="99" fill="#7c5cff" opacity="0.149"/><circle cx="616" cy="201" r="8" fill="#ff4d8d" opacity="0.119"/><circle cx="425" cy="611" r="83" fill="#ff4d8d" opacity="0.046"/><circle cx="250" cy="837" r="82" fill="#7c5cff" opacity="0.107"/><circle cx="1313" cy="514" r="108" fill="#7c5cff" opacity="0.075"/><circle cx="1562" cy="-13" r="96" fill="#ff4d8d" opacity="0.096"/><circle cx="144" cy="111" r="120" fill="#ffd166" opacity="0.04"/><circle cx="1549" cy="982" r="11" fill="#ffd166" opacity="0.141"/><circle cx="1198" cy="961" r="23" fill="#ff4d8d" opacity="0.135"/><circle cx="118" cy="822" r="100" fill="#7c5cff" opacity="0.044"/><circle cx="207" cy="709" r="119" fill="#ffd166" opacity="0.164"/><circle cx="239" cy="199" r="33" fill="#ff4d8d" opacity="0.108"/><circle cx="711" cy="611" r="61" fill="#ff4d8d" opacity="0.143"/><circle cx="1316" cy="147" r="39" fill="#ff4d8d" opacity="0.066"/><circle cx="-16" cy="161" r="24" fill="#ffd166" opacity="0.159"/><circle cx="1082" cy="935" r="58" fill="#ffd166" opacity="0.103"/><circle cx="1459" cy="584" r="57" fill="#ff4d8d" opacity="0.147"/><circle cx="349" cy="502" r="101" fill="#ffd166" opacity="0.173"/><circle cx="1213" cy="-28" r="69" fill="#ff4d8d" opacity="0.049"/><circle cx="1405" cy="37" r="32" fill="#ffd166" opacity="0.122"/><circle cx="1295" cy="306" r="15" fill="#ff4d8d" opacity="0.122"/>
<rect width="1600" height="900" filter="url(#grain)" opacity="0.7"/>
</svg>