<svg xmlns="http://www.w3.org/2000/svg" width="1600" height="900" viewBox="0 0 1600 900">
<defs>
  <linearGradient id="g" x1="0" y1="0" x2="0" y2="1">
    <stop offset="0" stop-color="#2a0b1f"/>
    <stop offset="1" stop-color="#07070d"/>
  </linearGradient>
  <filter id="grain">
    <feTurbulence type="fractalNoise" baseFrequency="0.8" numOctaves="2" stitchTiles="stitch"/>
    <feColorMatrix type="matrix" values="1 0 0 0 0  0 1 0 0 0  0 0 1 0 0  0 0 0 .08 0"/>
  </filter>
</defs>
<rect width="1600" height="900" fill="url(#g)"/>
<circle cx="46" cy="54" r="48" fill="#2f7f60" opacity="0.111"/><circle cx="672" cy="359" r="20" fill="#ff6aa3" opacity="0.145"/><circle cx="481" cy="776" r="75" fill="#ff4d8d" opacity="0.061"/><circle cx="873" cy="82" r="69" fill="#ff4d8d" opacity="0.117"/><circle cx="564" cy="147" r="106" fill="#ff4d8d" opacity="0.061"/><circle cx="866" cy="955" r="41" fill="#ff4d8d" opacity="0.117"/><circle cx="50" cy="632" r="117" fill="#ff2f77" opacity="0.078"/><circle cx="829" cy="368" r="61" fill="#ff6aa3" opacity="0.161"/><circle cx="1175" cy="331" r="88" fill="#ff6aa3" opacity="0.059"/><circle cx="582" cy="-38" r="39" fill="#ff4d8d" opacity="0.118"/><circle cx="-49" cy="785" r="99" fill="#ff6aa3" opacity="0.049"/><circle cx="204" cy="643" r="18" fill="#2f7f60" opacity="0.167"/><circle cx="900" cy="467" r="8" fill="#2f7f60" opacity="0.079"/><circle cx="1338" cy="836" r="72" fill="#2f7f60" opacity="0.164"/><circle cx="1248" cy="133" r="10" fill="#2f7f60" opacity="0.122"/><circle cx="587" cy="952" r="9" fill="#2f7f60" opacity="0.152"/><circle cx="219" cy="851" r="31" fill="#ff4d8d" opacity="0.081"/><circle cx="604" cy="978" r="77" fill="#2f7f60" opacity="0.11"/><circle cx="660" cy="647" r="36" fill="#ff6aa3" opacity="0.067"/><circle cx="470" cy="145" r="117" fill="#ff2f77" opacity="0.133"/><circle cx="1523" cy="190" r="78" fill="#ff4d8d" opacity="0.074"/><circle cx="704" cy="8" r="45" fill="#ff6aa3" opacity="0.058"/><circle cx="473" cy="521" r="77" fill="#ff4d8d" opacity="0.148"/><circle cx="1265" cy="828" r="85" fill="#ff2f77" opacity="0.095"/><circle cx="1584" cy="886" r="35" fill="#ff4d8d" opacity="0.116"/><circle cx="1483" cy="-45" r="90" fill="#ff4d8d" opacity="0.114"/><circle cx="417" cy="910" r="58" fill="#ff6aa3" opacity="0.104"/><circle cx="87" cy="124" r="26" fill="#ff4d8d" opacity="0.072"/><circle cx="659" cy="176" r="28" fill="#ff4d8d" opacity="0.122"/><circle cx="125" cy="599" r="110" fill="#ff6aa3" opacity="0.149"/><circle cx="688" cy="27" r="105" fill="#ff2f77" opacity="0.147"/><circle cx="1348" cy="958" r="39" fill="#ff4d8d" opacity="0.139"/><circle cx="-83" cy="-17" r="113" fill="#ff6aa3" opacity="0.099"/><circle cx="172" cy="630" r="99" fill="#ff2f77" opacity="0.097"/><circle cx="502" cy="223" r="42" fill="#2f7f60" opacity="0.129"/><circle cx="1614" cy="939" r="87" fill="#ff6aa3" opacity="0.146"/><circle cx="727" cy="557" r="31" fill="#2f7f60" opacity="0.051"/><circle cx="1411" cy="195" r="23" fill="#ff6aa3" opacity="0.123"/><circle cx="-28" cy="276" r="75" fill="#ff6aa3" opacity="0.065"/><circle cx="241" cy="822" r="67" fill="#2f7f60" opacity="0.138"/><circle cx="1305" cy="891" r="53" fill="#2f7f60" opacity="0.064"/><circle cx="301" cy="111" r="49" fill="#ff6aa3" opacity="0.085"/><circle cx="702" cy="310" r="41" fill="#ff6aa3" opacity="0.109"/><circle cx="295" cy="192" r="54" fill="#2f7f60" opacity="0.138"/><circle cx="457" cy="-52" r="39" fill="#ff6aa3" opacity="0.087"/><circle cx="423" cy="43" r="101" fill="#2f7f60" opacity="0.116"/><circle cx="297" cy="536" r="50" fill="#ff2f77" opacity="0.071"/><circle cx="1335" cy="441" r="28" fill="#2f7f60" opacity="0.088"/><circle cx="1093" cy="454" r="41" fill="#2f7f60" opacity="0.169"/><circle cx="377" cy="132" r="41" fill="#ff6aa3" opacity="0.093"/><circle cx="847" cy="347" r="102" fill="#ff2f77" opacity="0.052"/><circle cx="836" cy="264" r="35" fill="#ff4d8d" opacity="0.116"/><circle cx="19" cy="589" r="27" fill="#2f7f60" opacity="0.16"/><circle cx="708" cy="649" r="96" fill="#ff2f77" opacity="0.08"/><circle cx="1013" cy="571" r="84" fill="#ff2f77" opacity="0.052"/><circle cx="1121" cy="559" r="85" fill="#ff4d8d" opacity="0.141"/><circle cx="268" cy="817" r="75" fill="#ff6aa3" opacity="0.162"/><circle cx="209" cy="373" r="20" fill="#2f7f60" opacity="0.113"/><circle cx="1057" cy="141" r="66" fill="#2f7f60" opacity="0.095"/><circle cx="851" cy="542" r="17" fill="#2f7f60" opacity="0.135"/><circle cx="547" cy="793" r="14" fill="#ff2f77" opacity="0.108"/><circle cx="628" cy="934" r="93" fill="#ff4d8d" opacity="0.079"/><circle cx="1347" cy="100" r="17" fill="#2f7f60" opacity="0.052"/><circle cx="493" cy="986" r="112" fill="#ff2f77" opacity="0.12"/><circle cx="1566" cy="401" r="34" fill="#ff4d8d" opacity="0.165"/><circle cx="324" cy="206" r="86" fill="#ff6aa3" opacity="0.155"/><circle cx="1041" cy="761" r="30" fill="#ff2f77" opacity="0.08"/><circle cx="1531" cy="141" r="47" fill="#ff2f77" opacity="0.152"/><circle cx="1376" cy="730" r="33" fill="#2f7f60" opacity="0.133"/><circle cx="1603" cy="697" r="67" fill="#ff4d8d" opacity="0.064"/><circle cx="877" cy="265" r="47" fill="#ff4d8d" opacity="0.176"/><circle cx="839" cy="831" r="47" fill="#ff2f77" opacity="0.17"/><circle cx="349" cy="479" r="78" fill="#2f7f60" opacity="0.105"/><circle cx="1178" cy="198" r="66" fill="#ff6aa3" opacity="0.105"/><circle cx="1561" cy="611" r="14" fill="#ff2f77" opacity="0.089"/><circle cx="944" cy="-13" r="119" fill="#ff6aa3" opacity="0.121"/><circle cx="1549" cy="808" r="15" fill="#ff2f77" opacity="0.116"/><circle cx="0" cy="811" r="65" fill="#ff4d8d" opacity="0.137"/><circle cx="286" cy="902" r="101" fill="#ff2f77" opacity="0.162"/><circle cx="228" cy="-63" r="99" fill="#2f7f60" opacity="0.072"/><circle cx="132" cy="6" r="108" fill="#2f7f60" opacity="0.082"/><circle cx="1377" cy="856" r="110" fill="#ff6aa3" opacity="0.089"/><circle cx="756" cy="360" r="37" fill="#ff4d8d" opacity="0.144"/><circle cx="1062" cy="840" r="78" fill="#ff6aa3" opacity="0.178"/><circle cx="595" cy="-4" r="24" fill="#2f7f60" opacity="0.062"/><circle cx="1635" cy="789" r="105" fill="#2f7f60" opacity="0.081"/><circle cx="1397" cy="380" r="51" fill="#ff6aa3" opacity="0.089"/><circle cx="166" cy="739" r="16" fill="#2f7f60" opacity="0.115"/><circle cx="550" cy="317" r="17" fill="#2f7f60" opacity="0.144"/><circle cx="1344" cy="773" r="80" fill="#ff6aa3" opacity="0.129"/><circle cx="548" cy="532" r="22" fill="#2f7f60" opacity="0.093"/><circle cx="1179" cy="414" r="17" fill="#ff4d8d" opacity="0.159"/><circle cx="732" cy="616" r="69" fill="#ff2f77" opacity="0.126"/><circle cx="1627" cy="320" r="17" fill="#ff4d8d" opacity="0.11"/><circle cx="488" cy="26" r="72" fill="#ff6aa3" opacity="0.1"/><circle cx="1038" cy="815" r="39" fill="#2f7f60" opacity="0.152"/><circle cx="1173" cy="-30" r="40" fill="#ff6aa3" opacity="0.067"/><circle cx="-45" cy="826" r="101" fill="#ff2f77" opacity="0.122"/><circle cx="1593" cy="313" r="36" fill="#ff6aa3" opacity="0.149"/><circle cx="582" cy="410" r="20" fill="#ff4d8d" opacity="0.122"/><circle cx="8" cy="831" r="78" fill="#ff2f77" opacity="0.053"/><circle cx="249" cy="315" r="101" fill="#ff6aa3" opacity="0.119"/><circle cx="1030" cy="58" r="53" fill="#ff6aa3" opacity="0.043"/><circle cx="23" cy="768" r="73" fill="#ff6aa3" opacity="0.081"/><circle cx="345" cy="54" r="75" fill="#2f7f60" opacity="0.097"/><circle cx="396" cy="782" r="90" fill="#2f7f60" opacity="0.177"/><circle cx="1622" cy="899" r="65" fill="#ff2f77" opacity="0.174"/><circle cx="686" cy="-76" r="82" fill="#2f7f60" opacity="0.077"/><circle cx="1091" cy="84" r="70" fill="#ff4d8d" opacity="0.074"/><circle cx="799" cy="361" r="80" fill="#ff2f77" opacity="0.099"/><circle cx="495" cy="255" r="18" fill="#ff4d8d" opacity="0.068"/><circle cx="515" cy="319" r="10" fill="#ff4d8d" opacity="0.092"/><circle cx="1198" cy="399" r="118" fill="#ff4d8d" opacity="0.043"/><circle cx="937" cy="230" r="33" fill="#ff4d8d" opacity="0.13"/><circle cx="1031" cy="64" r="16" fill="#2f7f60" opacity="0.112"/><circle cx="937" cy="294" r="75" fill="#ff2f77" opacity="0.14"/><circle cx="878" cy="676" r="75" fill="#ff4d8d" opacity="0.136"/><circle cx="749" cy="212" r="12" fill="#ff6aa3" opacity="0.131"/><circle cx="1150" cy="938" r="33" fill="#ff6aa3" opacity="0.072"/><circle cx="391" cy="636" r="59" fill="#ff2f77" opacity="0.057"/><circle cx="711" cy="714" r="60" fill="#2f7f60" opacity="0.064"/><circle cx="1125" cy="595" r="70" fill="#ff2f77" opacity="0.051"/><circle cx="152" cy="631" r="60" fill="#2f7f60" opacity="0.084"/><circle cx="137" cy="467" r="64" fill="#ff2f77" opacity="0.051"/><circle cx="998" cy="607" r="18" fill="#ff4d8d" opacity="0.133"/><circle cx="-78" cy="342" r="18" fill="#ff6aa3" opacity="0.077"/><circle cx="1291" cy="411" r="85" fill="#ff2f77" opacity="0.168"/><circle cx="692" cy="110" r="97" fill="#2f7f60" opacity="0.07"/><circle cx="541" cy="400" r="87" fill="#2f7f60" opacity="0.103"/><circle cx="-4" cy="269" r="112" fill="#2f7f60" opacity="0.149"/><circle cx="214" cy="471" r="10" fill="#ff4d8d" opacity="0.172"/><circle cx="373" cy="161" r="11" fill="#ff4d8d" opacity="0.064"/><circle cx="168" cy="5" r="90" fill="#ff4d8d" opacity="0.162"/><circle cx="-76" cy="525" r="50" fill="#ff2f77" opacity="0.074"/><circle cx="1456" cy="582" r="13" fill="#ff2f77" opacity="0.058"/><circle cx="1260" cy="713" r="63" fill="#2f7f60" opacity="0.153"/><circle cx="1579" cy="679" r="38" fill="#ff6aa3" opacity="0.076"/><circle cx="819" cy="967" r="92" fill="#ff6aa3" opacity="0.127"/><circle cx="743" cy="478" r="20" fill="#2f7f60" opacity="0.121"/><circle cx="1213" cy="54" r="114" fill="#ff6aa3" opacity="0.144"/><circle cx="1091" cy="130" r="24" fill="#ff2f77" opacity="0.099"/><circle cx="947" cy="937" r="8" fill="#ff4d8d" opacity="0.063"/><circle cx="867" cy="225" r="92" fill="#ff6aa3" opacity="0.05"/><circle cx="93" cy="616" r="112" fill="#ff2f77" opacity="0.092"/><circle cx="1074" cy="121" r="115" fill="#2f7f60" opacity="0.05"/><circle cx="468" cy="489" r="96" fill="#2f7f60" opacity="0.114"/><circle cx="1278" cy="210" r="119" fill="#2f7f60" opacity="0.096"/><circle cx="711" cy="61" r="81" fill="#2f7f60" opacity="0.069"/><circle cx="1122" cy="192" r="8" fill="#ff2f77" opacity="0.047"/><circle cx="1164" cy="989" r="13" fill="#ff6aa3" opacity="0.116"/><circle cx="-58" cy="379" r="20" fill="#ff4d8d" opacity="0.171"/><circle cx="91" cy="962" r="41" fill="#ff4d8d" opacity="0.067"/><circle cx="1008" cy="388" r="41" fill="#ff4d8d" opacity="0.175"/><circle cx="1238" cy="751" r="14" fill="#ff6aa3" opacity="0.098"/><circle cx="424" cy="329" r="19" fill="#2f7f60" opacity="0.18"/><circle cx="1500" cy="396" r="35" fill="#ff4d8d" opacity="0.136"/><circle cx="-38" cy="508" r="112" fill="#ff2f77" opacity="0.093"/><circle cx="1650" cy="715" r="83" fill="#ff2f77" opacity="0.174"/><circle cx="338" cy="166" r="54" fill="#ff2f77" opacity="0.043"/><circle cx="748" cy="469" r="57" fill="#ff6aa3" opacity="0.126"/><circle cx="872" cy="589" r="91" fill="#ff6aa3" opacity="0.159"/><circle cx="1608" cy="450" r="38" fill="#ff6aa3" opacity="0.086"/><circle cx="908" cy="746" r="8" fill="#ff4d8d" opacity="0.091"/><circle cx="1382" cy="57" r="104" fill="#2f7f60" opacity="0.179"/><circle cx="1086" cy="854" r="16" fill="#ff2f77" opacity="0.068"/><circle cx="901" cy="234" r="37" fill="#ff2f77" opacity="0.093"/><circle cx="1305" cy="239" r="12" fill="#2f7f60" opacity="0.092"/><circle cx="1194" cy="21" r="99" fill="#ff6aa3" opacity="0.135"/><circle cx="499" cy="304" r="10" fill="#2f7f60" opacity="0.125"/><circle cx="1239" cy="725" r="53" fill="#ff4d8d" opacity="0.086"/><circle cx="369" cy="892" r="11" fill="#ff4d8d" opacity="0.101"/><circle cx="1392" cy="44" r="74" fill="#ff6aa3" opacity="0.094"/><circle cx="838" cy="488" r="23" fill="#2f7f60" opacity="0.064"/><circle cx="890" cy="889" r="70" fill="#ff6aa3" opacity="0.163"/><circle cx="1391" cy="137" r="42" fill="#2f7f60" opacity="0.127"/><circle cx="-41" cy="989" r="42" fill="#ff4d8d" opacity="0.049"/><circle cx="363" cy="644" r="59" fill="#ff6aa3" opacity="0.076"/><circle cx="519" cy="469" r="45" fill="#ff4d8d" opacity="0.05"/><circle cx="1666" cy="62" r="16" fill="#ff6aa3" opacity="0.13"/><circle cx="561" cy="712" r="90" fill="#ff6aa3" opacity="0.175"/><circle cx="1249" cy="698" r="69" fill="#ff2f77" opacity="0.144"/><circle cx="1573" cy="876" r="90" fill="#ff6aa3" opacity="0.067"/><circle cx="1385" cy="589" r="34" fill="#ff2f77" opacity="0.139"/><circle cx="1225" cy="213" r="88" fill="#ff4d8d" opacity="0.14"/><circle cx="595" cy="-50" r="119" fill="#ff6aa3" opacity="0.072"/><circle cx="882" cy="3" r="112" fill="#ff2f77" opacity="0.115"/><circle cx="740" cy="785" r="109" fill="#ff6aa3" opacity="0.118"/><circle cx="1241" cy="593" r="118" fill="#ff4d8d" opacity="0.097"/><circle cx="-93" cy="826" r="55" fill="#ff4d8d" opacity="0.159"/><circle cx="1488" cy="454" r="80" fill="#ff2f77" opacity="0.179"/><circle cx="1608" cy="442" r="25" fill="#ff6aa3" opacity="0.063"/><circle cx="80" cy="915" r="105" fill="#ff2f77" opacity="0.135"/><circle cx="1049" cy="749" r="9" fill="#ff4d8d" opacity="0.082"/><circle cx="913" cy="709" r="26" fill="#ff2f77" opacity="0.056"/><circle cx="-41" cy="-48" r="62" fill="#ff6aa3" opacity="0.154"/><circle cx="789" cy="574" r="78" fill="#ff6aa3" opacity="0.145"/><circle cx="1431" cy="73" r="73" fill="#2f7f60" opacity="0.143"/><circle cx="167" cy="170" r="56" fill="#ff2f77" opacity="0.141"/><circle cx="1406" cy="511" r="99" fill="#ff6aa3" opacity="0.144"/><circle cx="1364" cy="363" r="118" fill="#2f7f60" opacity="0.046"/><circle cx="1575" cy="250" r="9" fill="#ff2f77" opacity="0.135"/><circle cx="339" cy="744" r="80" fill="#ff4d8d" opacity="0.09"/><circle cx="1615" cy="180" r="37" fill="#ff2f77" opacity="0.098"/><circle cx="496" cy="336" r="115" fill="#ff6aa3" opacity="0.069"/><circle cx="474" cy="901" r="95" fill="#ff6aa3" opacity="0.172"/><circle cx="1374" cy="24" r="71" fill="#2f7f60" opacity="0.083"/><circle cx="1290" cy="316" r="86" fill="#2f7f60" opacity="0.148"/><circle cx="287" cy="711" r="70" fill="#ff6aa3" opacity="0.121"/><circle cx="1537" cy="73" r="118" fill="#ff6aa3" opacity="0.156"/><circle cx="477" cy="259" r="20" fill="#ff6aa3" opacity="0.044"/><circle cx="-100" cy="-90" r="52" fill="#2f7f60" opacity="0.171"/><circle cx="332" cy="788" r="32" fill="#ff2f77" opacity="0.067"/><circle cx="964" cy="496" r="42" fill="#ff2f77" opacity="0.137"/><circle cx="84" cy="351" r="86" fill="#ff6aa3" opacity="0.139"/><circle cx="674" cy="121" r="14" fill="#ff6aa3" opacity="0.064"/><circle cx="6" cy="663" r="57" fill="#ff2f77" opacity="0.056"/><circle cx="811" cy="144" r="38" fill="#ff2f77" opacity="0.094"/><circle cx="1232" cy="721" r="17" fill="#2f7f60" opacity="0.095"/><circle cx="1581" cy="649" r="12" fill="#ff6aa3" opacity="0.048"/><circle cx="1566" cy="433" r="63" fill="#ff4d8d" opacity="0.151"/><circle cx="386" cy="863" r="17" fill="#2f7f60" opacity="0.092"/><circle cx="207" cy="256" r="82" fill="#ff2f77" opacity="0.146"/><circle cx="-60" cy="945" r="14" fill="#2f7f60" opacity="0.047"/><circle cx="1689" cy="579" r="56" fill="#2f7f60" opacity="0.072"/><circle cx="908" cy="106" r="90" fill="#2f7f60" opacity="0.103"/><circle cx="226" cy="277" r="83" fill="#ff6aa3" opacity="0.104"/><circle cx="272" cy="456" r="26" fill="#ff6aa3" opacity="0.098"/><circle cx="1199" cy="633" r="120" fill="#ff4d8d" opacity="0.11"/><circle cx="-78" cy="872" r="86" fill="#ff2f77" opacity="0.177"/><circle cx="168" cy="386" r="13" fill="#ff4d8d" opacity="0.056"/><circle cx="1472" cy="504" r="117" fill="#2f7f60" opacity="0.108"/><circle cx="1042" cy="692" r="61" fill="#ff4d8d" opacity="0.168"/><circle cx="762" cy="-97" r="28" fill="#ff2f77" opacity="0.071"/><circle cx="62" cy="974" r="33" fill="#ff4d8d" opacity="0.134"/><circle cx="1272" cy="-79" r="95" fill="#ff2f77" opacity="0.064"/><circle cx="681" cy="-51" r="105" fill="#ff6aa3" opacity="0.117"/><circle cx="910" cy="-32" r="46" fill="#ff2f77" opacity="0.096"/><circle cx="815" cy="-23" r="45" fill="#ff2f77" opacity="0.1"/><circle cx="928" cy="874" r="10" fill="#ff4d8d" opacity="0.102"/><circle cx="1625" cy="428" r="120" fill="#ff2f77" opacity="0.168"/>
<rect width="1600" height="900" filter="url(#grain)" opacity="0.7"/>
</svg>