<svg xmlns="http://www.w3.org/2000/svg" width="1600" height="900" viewBox="0 0 1600 900">
<defs>
  <linearGradient id="g" x1="0" y1="0" x2="0" y2="1">
    <stop offset="0" stop-color="#1a0b17"/>
    <stop offset="1" stop-color="#07070d"/>
  </linearGradient>
  <filter id="grain">
    <feTurbulence type="fractalNoise" baseFrequency="0.8" numOctaves="2" stitchTiles="stitch"/>
    <feColorMatrix type="matrix" values="1 0 0 0 0  0 1 0 0 0  0 0 1 0 0  0 0 0 .08 0"/>
  </filter>
</defs>
<rect width="1600" height="900" fill="url(#g)"/>
<circle cx="1670" cy="789" r="113" fill="#ffd166" opacity="0.147"/><circle cx="999" cy="806" r="32" fill="#ffb703" opacity="0.142"/><circle cx="1358" cy="673" r="86" fill="#ffd166" opacity="0.042"/><circle cx="1232" cy="730" r="13" fill="#ffd166" opacity="0.129"/><circle cx="157" cy="173" r="119" fill="#ff4d8d" opacity="0.154"/><circle cx="557" cy="160" r="38" fill="#ffd166" opacity="0.091"/><circle cx="1096" cy="993" r="102" fill="#ffd166" opacity="0.13"/><circle cx="759" cy="101" r="68" fill="#ff4d8d" opacity="0.172"/><circle cx="946" cy="657" r="31" fill="#ffd166" opacity="0.138"/><circle cx="1146" cy="-96" r="40" fill="#ff4d8d" opacity="0.166"/><circle cx="1348" cy="43" r="24" fill="#ffb703" opacity="0.099"/><circle cx="776" cy="142" r="73" fill="#ffb703" opacity="0.061"/><circle cx="1428" cy="3" r="37" fill="#ffb703" opacity="0.14"/><circle cx="496" cy="732" r="49" fill="#ffd166" opacity="0.058"/><circle cx="-11" cy="351" r="105" fill="#ffb703" opacity="0.128"/><circle cx="1700" cy="47" r="86" fill="#ff4d8d" opacity="0.121"/><circle cx="229" cy="997" r="59" fill="#ffb703" opacity="0.124"/><circle cx="1568" cy="896" r="51" fill="#ffd166" opacity="0.159"/><circle cx="801" cy="348" r="70" fill="#ffb703" opacity="0.072"/><circle cx="1440" cy="742" r="17" fill="#ffd166" opacity="0.152"/><circle cx="1383" cy="771" r="116" fill="#ff4d8d" opacity="0.111"/><circle cx="440" cy="945" r="64" fill="#ffd166" opacity="0.087"/><circle cx="401" cy="291" r="81" fill="#ffb703" opacity="0.053"/><circle cx="415" cy="987" r="41" fill="#ffb703" opacity="0.108"/><circle cx="247" cy="-35" r="96" fill="#ff4d8d" opacity="0.095"/><circle cx="1066" cy="-1" r="93" fill="#ffb703" opacity="0.082"/><circle cx="1422" cy="830" r="56" fill="#ffb703" opacity="0.099"/><circle cx="1038" cy="60" r="62" fill="#ff4d8d" opacity="0.175"/><circle cx="806" cy="716" r="96" fill="#ffb703" opacity="0.156"/><circle cx="1277" cy="508" r="26" fill="#ffb703" opacity="0.11"/><circle cx="1391" cy="131" r="92" fill="#ff4d8d" opacity="0.172"/><circle cx="1428" cy="265" r="72" fill="#ffd166" opacity="0.117"/><circle cx="758" cy="85" r="53" fill="#ffd166" opacity="0.128"/><circle cx="-32" cy="190" r="114" fill="#ffd166" opacity="0.162"/><circle cx="1049" cy="503" r="64" fill="#ff4d8d" opacity="0.166"/><circle cx="-44" cy="683" r="110" fill="#ffd166" opacity="0.103"/><circle cx="1603" cy="820" r="41" fill="#ffb703" opacity="0.153"/><circle cx="1587" cy="771" r="108" fill="#ff4d8d" opacity="0.131"/><circle cx="785" cy="271" r="91" fill="#ffd166" opacity="0.146"/><circle cx="12" cy="662" r="51" fill="#ffb703" opacity="0.077"/><circle cx="48" cy="311" r="48" fill="#ffd166" opacity="0.107"/><circle cx="385" cy="80" r="43" fill="#ffd166" opacity="0.165"/><circle cx="411" cy="397" r="95" fill="#ffb703" opacity="0.045"/><circle cx="1683" cy="-56" r="96" fill="#ffd166" opacity="0.071"/><circle cx="561" cy="446" r="14" fill="#ffd166" opacity="0.075"/><circle cx="500" cy="154" r="92" fill="#ffd166" opacity="0.072"/><circle cx="992" cy="302" r="31" fill="#ff4d8d" opacity="0.176"/><circle cx="844" cy="37" r="49" fill="#ffb703" opacity="0.132"/><circle cx="1372" cy="124" r="53" fill="#ffb703" opacity="0.073"/><circle cx="1512" cy="701" r="99" fill="#ffd166" opacity="0.121"/><circle cx="108" cy="418" r="43" fill="#ff4d8d" opacity="0.164"/><circle cx="1364" cy="-30" r="98" fill="#ff4d8d" opacity="0.077"/><circle cx="955" cy="-33" r="86" fill="#ff4d8d" opacity="0.143"/><circle cx="818" cy="333" r="24" fill="#ffb703" opacity="0.072"/><circle cx="1552" cy="28" r="111" fill="#ffb703" opacity="0.051"/><circle cx="892" cy="118" r="46" fill="#ffb703" opacity="0.163"/><circle cx="680" cy="814" r="42" fill="#ffd166" opacity="0.099"/><circle cx="391" cy="151" r="85" fill="#ff4d8d" opacity="0.134"/><circle cx="1263" cy="-80" r="103" fill="#ffd166" opacity="0.081"/><circle cx="1197" cy="880" r="12" fill="#ffb703" opacity="0.174"/><circle cx="175" cy="70" r="85" fill="#ffd166" opacity="0.13"/><circle cx="458" cy="837" r="10" fill="#ffd166" opacity="0.134"/><circle cx="856" cy="629" r="17" fill="#ffb703" opacity="0.096"/><circle cx="917" cy="621" r="8" fill="#ff4d8d" opacity="0.105"/><circle cx="1244" cy="188" r="88" fill="#ff4d8d" opacity="0.091"/><circle cx="1543" cy="388" r="31" fill="#ffd166" opacity="0.143"/><circle cx="12" cy="-58" r="28" fill="#ffd166" opacity="0.121"/><circle cx="351" cy="956" r="56" fill="#ffb703" opacity="0.127"/><circle cx="737" cy="123" r="115" fill="#ffb703" opacity="0.178"/><circle cx="241" cy="821" r="14" fill="#ffb703" opacity="0.056"/><circle cx="-50" cy="892" r="95" fill="#ffd166" opacity="0.103"/><circle cx="370" cy="36" r="94" fill="#ffb703" opacity="0.137"/><circle cx="1605" cy="837" r="50" fill="#ffd166" opacity="0.124"/><circle cx="1072" cy="467" r="99" fill="#ffd166" opacity="0.067"/><circle cx="488" cy="642" r="9" fill="#ffd166" opacity="0.178"/><circle cx="1288" cy="379" r="37" fill="#ffd166" opacity="0.108"/><circle cx="-20" cy="354" r="117" fill="#ffb703" opacity="0.05"/><circle cx="123" cy="970" r="43" fill="#ffb703" opacity="0.058"/><circle cx="309" cy="160" r="98" fill="#ffd166" opacity="0.079"/><circle cx="522" cy="518" r="78" fill="#ffd166" opacity="0.102"/><circle cx="515" cy="387" r="10" fill="#ff4d8d" opacity="0.079"/><circle cx="759" cy="683" r="36" fill="#ff4d8d" opacity="0.123"/><circle cx="891" cy="989" r="50" fill="#ff4d8d" opacity="0.063"/><circle cx="1647" cy="569" r="39" fill="#ffd166" opacity="0.103"/><circle cx="1513" cy="574" r="41" fill="#ffb703" opacity="0.073"/><circle cx="68" cy="825" r="37" fill="#ffd166" opacity="0.171"/><circle cx="1301" cy="803" r="92" fill="#ffd166" opacity="0.103"/><circle cx="126" cy="254" r="88" fill="#ffb703" opacity="0.136"/><circle cx="1220" cy="-25" r="29" fill="#ffd166" opacity="0.076"/><circle cx="1256" cy="-77" r="51" fill="#ffd166" opacity="0.068"/><circle cx="452" cy="-82" r="24" fill="#ffb703" opacity="0.048"/><circle cx="605" cy="350" r="70" fill="#ffb703" opacity="0.17"/><circle cx="1413" cy="330" r="67" fill="#ff4d8d" opacity="0.061"/><circle cx="1247" cy="205" r="74" fill="#ffd166" opacity="0.132"/><circle cx="247" cy="132" r="98" fill="#ffd166" opacity="0.123"/><circle cx="1285" cy="-7" r="43" fill="#ffb703" opacity="0.164"/><circle cx="1055" cy="241" r="22" fill="#ff4d8d" opacity="0.144"/><circle cx="19" cy="43" r="76" fill="#ffd166" opacity="0.089"/><circle cx="472" cy="64" r="84" fill="#ffd166" opacity="0.05"/><circle cx="534" cy="4" r="58" fill="#ffb703" opacity="0.072"/><circle cx="116" cy="140" r="17" fill="#ff4d8d" opacity="0.141"/><circle cx="13" cy="730" r="33" fill="#ff4d8d" opacity="0.044"/><circle cx="1039" cy="-6" r="14" fill="#ff4d8d" opacity="0.126"/><circle cx="803" cy="349" r="89" fill="#ffb703" opacity="0.094"/><circle cx="1316" cy="727" r="120" fill="#ffd166" opacity="0.041"/><circle cx="1247" cy="60" r="71" fill="#ffb703" opacity="0.177"/><circle cx="-93" cy="859" r="38" fill="#ff4d8d" opacity="0.158"/><circle cx="108" cy="368" r="82" fill="#ffb703" opacity="0.129"/><circle cx="502" cy="136" r="98" fill="#ffd166" opacity="0.051"/><circle cx="-40" cy="98" r="85" fill="#ff4d8d" opacity="0.101"/><circle cx="-50" cy="651" r="61" fill="#ffd166" opacity="0.08"/><circle cx="806" cy="264" r="34" fill="#ffd166" opacity="0.083"/><circle cx="829" cy="884" r="105" fill="#ffb703" opacity="0.164"/><circle cx="-64" cy="727" r="42" fill="#ffd166" opacity="0.084"/><circle cx="649" cy="35" r="116" fill="#ffb703" opacity="0.073"/><circle cx="-1" cy="103" r="77" fill="#ffd166" opacity="0.056"/><circle cx="706" cy="622" r="44" fill="#ffb703" opacity="0.142"/><circle cx="132" cy="785" r="34" fill="#ff4d8d" opacity="0.142"/><circle cx="1357" cy="958" r="118" fill="#ff4d8d" opacity="0.165"/><circle cx="1560" cy="918" r="48" fill="#ff4d8d" opacity="0.099"/><circle cx="1350" cy="112" r="13" fill="#ffd166" opacity="0.061"/><circle cx="515" cy="163" r="29" fill="#ffd166" opacity="0.101"/><circle cx="918" cy="848" r="110" fill="#ffb703" opacity="0.161"/><circle cx="1087" cy="247" r="25" fill="#ffb703" opacity="0.15"/><circle cx="547" cy="415" r="9" fill="#ffb703" opacity="0.161"/><circle cx="499" cy="-28" r="57" fill="#ffb703" opacity="0.14"/><circle cx="815" cy="72" r="47" fill="#ffd166" opacity="0.061"/><circle cx="1634" cy="456" r="42" fill="#ffd166" opacity="0.175"/><circle cx="229" cy="634" r="98" fill="#ffd166" opacity="0.153"/><circle cx="103" cy="490" r="57" fill="#ffb703" opacity="0.168"/><circle cx="1173" cy="754" r="54" fill="#ffd166" opacity="0.082"/><circle cx="1265" cy="-44" r="31" fill="#ffb703" opacity="0.059"/><circle cx="185" cy="480" r="9" fill="#ff4d8d" opacity="0.12"/><circle cx="1367" cy="304" r="11" fill="#ff4d8d" opacity="0.11"/><circle cx="1221" cy="705" r="20" fill="#ff4d8d" opacity="0.117"/><circle cx="1520" cy="-31" r="90" fill="#ffd166" opacity="0.041"/><circle cx="1245" cy="874" r="50" fill="#ff4d8d" opacity="0.119"/><circle cx="1667" cy="319" r="83" fill="#ffb703" opacity="0.129"/><circle cx="380" cy="40" r="105" fill="#ffd166" opacity="0.058"/><circle cx="65" cy="499" r="40" fill="#ffd166" opacity="0.066"/><circle cx="737" cy="764" r="30" fill="#ff4d8d" opacity="0.099"/><circle cx="933" cy="364" r="42" fill="#ff4d8d" opacity="0.107"/><circle cx="1432" cy="908" r="55" fill="#ffd166" opacity="0.102"/><circle cx="46" cy="54" r="46" fill="#ffb703" opacity="0.048"/><circle cx="854" cy="628" r="22" fill="#ff4d8d" opacity="0.136"/><circle cx="815" cy="67" r="65" fill="#ff4d8d" opacity="0.141"/><circle cx="657" cy="642" r="104" fill="#ff4d8d" opacity="0.092"/><circle cx="1304" cy="524" r="61" fill="#ffb703" opacity="0.076"/><circle cx="103" cy="495" r="115" fill="#ff4d8d" opacity="0.143"/><circle cx="343" cy="97" r="113" fill="#ffb703" opacity="0.077"/><circle cx="1355" cy="381" r="106" fill="#ffd166" opacity="0.102"/><circle cx="688" cy="358" r="86" fill="#ff4d8d" opacity="0.102"/><circle cx="362" cy="272" r="53" fill="#ffb703" opacity="0.106"/><circle cx="1111" cy="-30" r="59" fill="#ff4d8d" opacity="0.1"/><circle cx="339" cy="453" r="77" fill="#ffb703" opacity="0.165"/><circle cx="1331" cy="622" r="54" fill="#ffd166" opacity="0.088"/><circle cx="1698" cy="-95" r="51" fill="#ffb703" opacity="0.061"/><circle cx="437" cy="447" r="86" fill="#ff4d8d" opacity="0.051"/><circle cx="459" cy="159" r="81" fill="#ffd166" opacity="0.1"/><circle cx="281" cy="407" r="90" fill="#ff4d8d" opacity="0.162"/><circle cx="654" cy="12" r="25" fill="#ffb703" opacity="0.043"/><circle cx="1228" cy="994" r="87" fill="#ffd166" opacity="0.066"/><circle cx="624" cy="241" r="25" fill="#ffd166" opacity="0.15"/><circle cx="1569" cy="860" r="46" fill="#ffd166" opacity="0.145"/><circle cx="-53" cy="4" r="58" fill="#ffb703" opacity="0.077"/><circle cx="1236" cy="521" r="73" fill="#ffb703" opacity="0.162"/><circle cx="1303" cy="237" r="115" fill="#ff4d8d" opacity="0.141"/><circle cx="211" cy="203" r="45" fill="#ffd166" opacity="0.08"/><circle cx="956" cy="1" r="118" fill="#ffd166" opacity="0.09"/><circle cx="269" cy="798" r="37" fill="#ff4d8d" opacity="0.121"/><circle cx="1185" cy="10" r="114" fill="#ff4d8d" opacity="0.056"/><circle cx="624" cy="993" r="92" fill="#ff4d8d" opacity="0.127"/><circle cx="535" cy="572" r="67" fill="#ffb703" opacity="0.126"/><circle cx="755" cy="101" r="119" fill="#ffd166" opacity="0.059"/><circle cx="1191" cy="618" r="20" fill="#ff4d8d" opacity="0.151"/><circle cx="932" cy="67" r="19" fill="#ffb703" opacity="0.087"/><circle cx="45" cy="33" r="53" fill="#ffb703" opacity="0.078"/><circle cx="1391" cy="177" r="14" fill="#ff4d8d" opacity="0.139"/><circle cx="1278" cy="383" r="85" fill="#ffd166" opacity="0.098"/><circle cx="980" cy="164" r="40" fill="#ffb703" opacity="0.102"/><circle cx="693" cy="900" r="64" fill="#ffb703" opacity="0.174"/><circle cx="484" cy="500" r="44" fill="#ffd166" opacity="0.135"/><circle cx="-1" cy="590" r="106" fill="#ffd166" opacity="0.156"/><circle cx="382" cy="287" r="46" fill="#ff4d8d" opacity="0.113"/><circle cx="486" cy="895" r="119" fill="#ff4d8d" opacity="0.094"/><circle cx="409" cy="474" r="85" fill="#ffd166" opacity="0.044"/><circle cx="-63" cy="765" r="73" fill="#ffd166" opacity="0.16"/><circle cx="1251" cy="371" r="8" fill="#ffb703" opacity="0.17"/><circle cx="1424" cy="226" r="58" fill="#ffb703" opacity="0.076"/><circle cx="952" cy="911" r="36" fill="#ff4d8d" opacity="0.101"/><circle cx="294" cy="-45" r="27" fill="#ff4d8d" opacity="0.07"/><circle cx="282" cy="309" r="79" fill="#ffd166" opacity="0.133"/><circle cx="101" cy="817" r="105" fill="#ffb703" opacity="0.174"/><circle cx="1288" cy="-94" r="55" fill="#ffd166" opacity="0.076"/><circle cx="167" cy="134" r="57" fill="#ff4d8d" opacity="0.043"/><circle cx="924" cy="55" r="81" fill="#ff4d8d" opacity="0.139"/><circle cx="267" cy="967" r="74" fill="#ffd166" opacity="0.161"/><circle cx="715" cy="891" r="55" fill="#ff4d8d" opacity="0.115"/><circle cx="455" cy="147" r="106" fill="#ffb703" opacity="0.046"/><circle cx="1442" cy="478" r="21" fill="#ffb703" opacity="0.048"/><circle cx="533" cy="624" r="41" fill="#ffd166" opacity="0.101"/><circle cx="896" cy="441" r="63" fill="#ff4d8d" opacity="0.143"/><circle cx="44" cy="419" r="33" fill="#ff4d8d" opacity="0.118"/><circle cx="105" cy="137" r="98" fill="#ff4d8d" opacity="0.063"/><circle cx="990" cy="99" r="71" fill="#ff4d8d" opacity="0.056"/><circle cx="932" cy="538" r="24" fill="#ffd166" opacity="0.115"/><circle cx="1327" cy="14" r="97" fill="#ffd166" opacity="0.064"/><circle cx="637" cy="446" r="22" fill="#ffb703" opacity="0.088"/><circle cx="746" cy="496" r="117" fill="#ffd166" opacity="0.092"/><circle cx="135" cy="310" r="93" fill="#ff4d8d" opacity="0.078"/><circle cx="170" cy="761" r="50" fill="#ffb703" opacity="0.104"/><circle cx="1405" cy="432" r="65" fill="#ff4d8d" opacity="0.133"/><circle cx="1381" cy="993" r="33" fill="#ffd166" opacity="0.087"/><circle cx="1183" cy="563" r="28" fill="#ffb703" opacity="0.167"/><circle cx="340" cy="841" r="97" fill="#ff4d8d" opacity="0.155"/><circle cx="780" cy="949" r="108" fill="#ffb703" opacity="0.12"/><circle cx="464" cy="57" r="33" fill="#ffb703" opacity="0.106"/><circle cx="902" cy="734" r="20" fill="#ffd166" opacity="0.065"/><circle cx="102" cy="680" r="118" fill="#ffd166" opacity="0.137"/><circle cx="1350" cy="847" r="29" fill="#ffd166" opacity="0.093"/>
<rect width="1600" height="900" filter="url(#grain)" opacity="0.7"/>
</svg>