<svg xmlns="http://www.w3.org/2000/svg" width="1600" height="900" viewBox="0 0 1600 900">
<defs>
  <linearGradient id="g" x1="0" y1="0" x2="0" y2="1">
    <stop offset="0" stop-color="#0c1230"/>
    <stop offset="1" stop-color="#07070d"/>
  </linearGradient>
  <filter id="grain">
    <feTurbulence type="fractalNoise" baseFrequency="0.8" numOctaves="2" stitchTiles="stitch"/>
    <feColorMatrix type="matrix" values="1 0 0 0 0  0 1 0 0 0  0 0 1 0 0  0 0 0 .08 0"/>
  </filter>
</defs>
<rect width="1600" height="900" fill="url(#g)"/>
<circle cx="603" cy="371" r="49" fill="#ff4d8d" opacity="0.156"/><circle cx="1452" cy="-47" r="73" fill="#ff4d8d" opacity="0.147"/><circle cx="1413" cy="215" r="14" fill="#3a86ff" opacity="0.051"/><circle cx="87" cy="738" r="68" fill="#3a86ff" opacity="0.108"/><circle cx="1420" cy="-97" r="34" fill="#7c5cff" opacity="0.123"/><circle cx="560" cy="990" r="30" fill="#7c5cff" opacity="0.153"/><circle cx="157" cy="107" r="68" fill="#3a86ff" opacity="0.177"/><circle cx="220" cy="-44" r="8" fill="#7c5cff" opacity="0.14"/><circle cx="1252" cy="838" r="92" fill="#3a86ff" opacity="0.068"/><circle cx="1535" cy="774" r="64" fill="#7c5cff" opacity="0.17"/><circle cx="719" cy="-17" r="52" fill="#7c5cff" opacity="0.1"/><circle cx="116" cy="31" r="41" fill="#3a86ff" opacity="0.043"/><circle cx="1499" cy="262" r="90" fill="#7c5cff" opacity="0.154"/><circle cx="338" cy="446" r="88" fill="#3a86ff" opacity="0.122"/><circle cx="227" cy="314" r="41" fill="#7c5cff" opacity="0.112"/><circle cx="1407" cy="327" r="25" fill="#7c5cff" opacity="0.174"/><circle cx="1415" cy="511" r="93" fill="#ff4d8d" opacity="0.067"/><circle cx="1144" cy="802" r="53" fill="#3a86ff" opacity="0.161"/><circle cx="1106" cy="900" r="56" fill="#7c5cff" opacity="0.13"/><circle cx="827" cy="929" r="57" fill="#3a86ff" opacity="0.063"/><circle cx="495" cy="690" r="30" fill="#7c5cff" opacity="0.045"/><circle cx="791" cy="-29" r="43" fill="#7c5cff" opacity="0.145"/><circle cx="728" cy="887" r="59" fill="#7c5cff" opacity="0.055"/><circle cx="515" cy="356" r="113" fill="#7c5cff" opacity="0.179"/><circle cx="358" cy="935" r="77" fill="#3a86ff" opacity="0.142"/><circle cx="1086" cy="615" r="112" fill="#7c5cff" opacity="0.143"/><circle cx="1678" cy="-12" r="78" fill="#ff4d8d" opacity="0.145"/><circle cx="1466" cy="880" r="18" fill="#ff4d8d" opacity="0.056"/><circle cx="1443" cy="480" r="87" fill="#3a86ff" opacity="0.046"/><circle cx="177" cy="498" r="68" fill="#ff4d8d" opacity="0.098"/><circle cx="1061" cy="548" r="72" fill="#3a86ff" opacity="0.128"/><circle cx="807" cy="284" r="108" fill="#7c5cff" opacity="0.077"/><circle cx="1616" cy="395" r="101" fill="#7c5cff" opacity="0.077"/><circle cx="238" cy="340" r="50" fill="#7c5cff" opacity="0.065"/><circle cx="485" cy="919" r="34" fill="#7c5cff" opacity="0.146"/><circle cx="1651" cy="82" r="24" fill="#ff4d8d" opacity="0.113"/><circle cx="1295" cy="890" r="109" fill="#3a86ff" opacity="0.052"/><circle cx="618" cy="475" r="112" fill="#7c5cff" opacity="0.119"/><circle cx="766" cy="921" r="88" fill="#7c5cff" opacity="0.173"/><circle cx="423" cy="843" r="60" fill="#7c5cff" opacity="0.157"/><circle cx="180" cy="615" r="103" fill="#3a86ff" opacity="0.122"/><circle cx="1291" cy="452" r="30" fill="#3a86ff" opacity="0.111"/><circle cx="1046" cy="717" r="113" fill="#ff4d8d" opacity="0.096"/><circle cx="368" cy="681" r="35" fill="#7c5cff" opacity="0.05"/><circle cx="296" cy="847" r="101" fill="#3a86ff" opacity="0.139"/><circle cx="217" cy="202" r="17" fill="#3a86ff" opacity="0.097"/><circle cx="421" cy="959" r="40" fill="#3a86ff" opacity="0.168"/><circle cx="709" cy="611" r="41" fill="#7c5cff" opacity="0.059"/><circle cx="-2" cy="510" r="61" fill="#ff4d8d" opacity="0.094"/><circle cx="737" cy="-19" r="90" fill="#ff4d8d" opacity="0.151"/><circle cx="1462" cy="113" r="53" fill="#ff4d8d" opacity="0.056"/><circle cx="945" cy="340" r="102" fill="#7c5cff" opacity="0.106"/><circle cx="1173" cy="758" r="68" fill="#ff4d8d" opacity="0.094"/><circle cx="-92" cy="942" r="72" fill="#7c5cff" opacity="0.124"/><circle cx="473" cy="717" r="26" fill="#ff4d8d" opacity="0.075"/><circle cx="-11" cy="720" r="107" fill="#3a86ff" opacity="0.154"/><circle cx="379" cy="444" r="27" fill="#7c5cff" opacity="0.096"/><circle cx="265" cy="241" r="21" fill="#3a86ff" opacity="0.049"/><circle cx="359" cy="650" r="87" fill="#ff4d8d" opacity="0.093"/><circle cx="690" cy="-10" r="82" fill="#ff4d8d" opacity="0.092"/><circle cx="955" cy="658" r="39" fill="#7c5cff" opacity="0.079"/><circle cx="1269" cy="498" r="26" fill="#7c5cff" opacity="0.103"/><circle cx="46" cy="127" r="90" fill="#ff4d8d" opacity="0.146"/><circle cx="811" cy="715" r="103" fill="#3a86ff" opacity="0.143"/><circle cx="90" cy="215" r="40" fill="#7c5cff" opacity="0.05"/><circle cx="1050" cy="28" r="46" fill="#7c5cff" opacity="0.104"/><circle cx="799" cy="903" r="120" fill="#7c5cff" opacity="0.083"/><circle cx="337" cy="302" r="65" fill="#ff4d8d" opacity="0.113"/><circle cx="748" cy="857" r="107" fill="#ff4d8d" opacity="0.159"/><circle cx="370" cy="-17" r="74" fill="#ff4d8d" opacity="0.062"/><circle cx="1132" cy="893" r="101" fill="#ff4d8d" opacity="0.156"/><circle cx="471" cy="505" r="96" fill="#3a86ff" opacity="0.046"/><circle cx="187" cy="687" r="37" fill="#3a86ff" opacity="0.119"/><circle cx="1014" cy="245" r="47" fill="#ff4d8d" opacity="0.098"/><circle cx="1358" cy="334" r="81" fill="#ff4d8d" opacity="0.049"/><circle cx="1148" cy="73" r="43" fill="#ff4d8d" opacity="0.083"/><circle cx="1008" cy="513" r="91" fill="#7c5cff" opacity="0.076"/><circle cx="1350" cy="742" r="36" fill="#ff4d8d" opacity="0.055"/><circle cx="193" cy="670" r="74" fill="#3a86ff" opacity="0.107"/><circle cx="717" cy="637" r="26" fill="#7c5cff" opacity="0.139"/><circle cx="1517" cy="595" r="32" fill="#7c5cff" opacity="0.14"/><circle cx="109" cy="574" r="84" fill="#3a86ff" opacity="0.148"/><circle cx="91" cy="934" r="73" fill="#ff4d8d" opacity="0.107"/><circle cx="996" cy="520" r="67" fill="#3a86ff" opacity="0.164"/><circle cx="293" cy="-6" r="71" fill="#7c5cff" opacity="0.069"/><circle cx="743" cy="761" r="45" fill="#ff4d8d" opacity="0.053"/><circle cx="696" cy="248" r="35" fill="#7c5cff" opacity="0.049"/><circle cx="966" cy="900" r="102" fill="#7c5cff" opacity="0.156"/><circle cx="1478" cy="69" r="11" fill="#7c5cff" opacity="0.154"/><circle cx="1470" cy="634" r="53" fill="#ff4d8d" opacity="0.137"/><circle cx="1390" cy="607" r="22" fill="#3a86ff" opacity="0.105"/><circle cx="180" cy="760" r="65" fill="#3a86ff" opacity="0.164"/><circle cx="178" cy="215" r="42" fill="#7c5cff" opacity="0.166"/><circle cx="472" cy="863" r="83" fill="#ff4d8d" opacity="0.073"/><circle cx="99" cy="415" r="111" fill="#3a86ff" opacity="0.114"/><circle cx="627" cy="737" r="114" fill="#3a86ff" opacity="0.083"/><circle cx="305" cy="615" r="19" fill="#3a86ff" opacity="0.179"/><circle cx="1581" cy="749" r="8" fill="#7c5cff" opacity="0.058"/><circle cx="936" cy="597" r="115" fill="#7c5cff" opacity="0.141"/><circle cx="1026" cy="151" r="90" fill="#7c5cff" opacity="0.079"/><circle cx="945" cy="754" r="16" fill="#3a86ff" opacity="0.156"/><circle cx="1265" cy="932" r="44" fill="#3a86ff" opacity="0.129"/><circle cx="1226" cy="538" r="104" fill="#ff4d8d" opacity="0.178"/><circle cx="561" cy="299" r="114" fill="#3a86ff" opacity="0.107"/><circle cx="27" cy="863" r="26" fill="#3a86ff" opacity="0.115"/><circle cx="472" cy="257" r="8" fill="#7c5cff" opacity="0.134"/><circle cx="774" cy="866" r="32" fill="#3a86ff" opacity="0.17"/><circle cx="565" cy="385" r="105" fill="#7c5cff" opacity="0.136"/><circle cx="1495" cy="-67" r="80" fill="#ff4d8d" opacity="0.087"/><circle cx="-30" cy="191" r="93" fill="#ff4d8d" opacity="0.045"/><circle cx="21" cy="591" r="15" fill="#ff4d8d" opacity="0.096"/><circle cx="1220" cy="700" r="54" fill="#7c5cff" opacity="0.116"/><circle cx="480" cy="779" r="16" fill="#ff4d8d" opacity="0.113"/><circle cx="1283" cy="413" r="114" fill="#7c5cff" opacity="0.107"/><circle cx="1389" cy="674" r="95" fill="#7c5cff" opacity="0.096"/><circle cx="954" cy="522" r="117" fill="#7c5cff" opacity="0.106"/><circle cx="1483" cy="404" r="108" fill="#3a86ff" opacity="0.147"/><circle cx="1386" cy="646" r="61" fill="#ff4d8d" opacity="0.147"/><circle cx="-40" cy="71" r="33" fill="#3a86ff" opacity="0.129"/><circle cx="500" cy="114" r="22" fill="#7c5cff" opacity="0.127"/><circle cx="1585" cy="-75" r="40" fill="#ff4d8d" opacity="0.046"/><circle cx="-10" cy="759" r="16" fill="#7c5cff" opacity="0.165"/><circle cx="701" cy="629" r="24" fill="#ff4d8d" opacity="0.115"/><circle cx="1228" cy="115" r="95" fill="#ff4d8d" opacity="0.143"/><circle cx="120" cy="731" r="105" fill="#7c5cff" opacity="0.166"/><circle cx="343" cy="645" r="76" fill="#7c5cff" opacity="0.07"/><circle cx="1524" cy="250" r="9" fill="#7c5cff" opacity="0.158"/><circle cx="419" cy="414" r="44" fill="#3a86ff" opacity="0.096"/><circle cx="1228" cy="900" r="69" fill="#7c5cff" opacity="0.043"/><circle cx="37" cy="957" r="60" fill="#3a86ff" opacity="0.097"/><circle cx="123" cy="-97" r="80" fill="#3a86ff" opacity="0.133"/><circle cx="557" cy="-86" r="60" fill="#7c5cff" opacity="0.149"/><circle cx="-74" cy="848" r="25" fill="#ff4d8d" opacity="0.143"/><circle cx="596" cy="319" r="82" fill="#7c5cff" opacity="0.138"/><circle cx="46" cy="333" r="11" fill="#ff4d8d" opacity="0.112"/><circle cx="190" cy="20" r="21" fill="#ff4d8d" opacity="0.179"/><circle cx="691" cy="330" r="89" fill="#7c5cff" opacity="0.078"/><circle cx="945" cy="961" r="48" fill="#3a86ff" opacity="0.147"/><circle cx="290" cy="-92" r="57" fill="#ff4d8d" opacity="0.065"/><circle cx="454" cy="995" r="71" fill="#7c5cff" opacity="0.128"/><circle cx="707" cy="828" r="109" fill="#ff4d8d" opacity="0.124"/><circle cx="878" cy="171" r="12" fill="#3a86ff" opacity="0.044"/><circle cx="1495" cy="909" r="45" fill="#ff4d8d" opacity="0.169"/><circle cx="113" cy="788" r="28" fill="#7c5cff" opacity="0.154"/><circle cx="315" cy="417" r="62" fill="#3a86ff" opacity="0.056"/><circle cx="1100" cy="136" r="62" fill="#7c5cff" opacity="0.068"/><circle cx="772" cy="-55" r="52" fill="#7c5cff" opacity="0.178"/><circle cx="1199" cy="856" r="26" fill="#7c5cff" opacity="0.162"/><circle cx="283" cy="879" r="91" fill="#ff4d8d" opacity="0.163"/><circle cx="573" cy="164" r="102" fill="#7c5cff" opacity="0.111"/><circle cx="1119" cy="135" r="68" fill="#ff4d8d" opacity="0.071"/><circle cx="438" cy="75" r="69" fill="#7c5cff" opacity="0.078"/><circle cx="1097" cy="-60" r="74" fill="#ff4d8d" opacity="0.051"/><circle cx="934" cy="-89" r="85" fill="#ff4d8d" opacity="0.085"/><circle cx="462" cy="550" r="95" fill="#3a86ff" opacity="0.173"/><circle cx="1220" cy="965" r="67" fill="#ff4d8d" opacity="0.083"/><circle cx="274" cy="440" r="18" fill="#ff4d8d" opacity="0.113"/><circle cx="683" cy="-48" r="103" fill="#ff4d8d" opacity="0.142"/><circle cx="-6" cy="398" r="10" fill="#7c5cff" opacity="0.061"/><circle cx="423" cy="2" r="81" fill="#ff4d8d" opacity="0.077"/><circle cx="783" cy="416" r="20" fill="#3a86ff" opacity="0.102"/><circle cx="1410" cy="256" r="86" fill="#3a86ff" opacity="0.155"/><circle cx="268" cy="358" r="87" fill="#3a86ff" opacity="0.157"/><circle cx="595" cy="266" r="33" fill="#7c5cff" opacity="0.095"/><circle cx="1608" cy="657" r="20" fill="#3a86ff" opacity="0.091"/><circle cx="786" cy="81" r="116" fill="#3a86ff" opacity="0.045"/><circle cx="318" cy="50" r="73" fill="#ff4d8d" opacity="0.156"/><circle cx="1224" cy="578" r="63" fill="#7c5cff" opacity="0.174"/><circle cx="1195" cy="454" r="111" fill="#7c5cff" opacity="0.102"/><circle cx="525" cy="301" r="45" fill="#3a86ff" opacity="0.073"/>
<rect width="1600" height="900" filter="url(#grain)" opacity="0.7"/>
</svg>