<svg xmlns="http://www.w3.org/2000/svg" width="1600" height="900" viewBox="0 0 1600 900">
<defs>
  <linearGradient id="g" x1="0" y1="0" x2="0" y2="1">
    <stop offset="0" stop-color="#1b0f12"/>
    <stop offset="1" stop-color="#07070d"/>
  </linearGradient>
  <filter id="grain">
    <feTurbulence type="fractalNoise" baseFrequency="0.8" numOctaves="2" stitchTiles="stitch"/>
    <feColorMatrix type="matrix" values="1 0 0 0 0  0 1 0 0 0  0 0 1 0 0  0 0 0 .08 0"/>
  </filter>
</defs>
<rect width="1600" height="900" fill="url(#g)"/>
<circle cx="875" cy="249" r="118" fill="#ff4d8d" opacity="0.103"/><circle cx="714" cy="131" r="93" fill="#6b2e2e" opacity="0.081"/><circle cx="1340" cy="911" r="64" fill="#ff4d8d" opacity="0.165"/><circle cx="357" cy="253" r="115" fill="#ffd166" opacity="0.099"/><circle cx="796" cy="264" r="26" fill="#6b2e2e" opacity="0.136"/><circle cx="886" cy="569" r="109" fill="#6b2e2e" opacity="0.153"/><circle cx="172" cy="689" r="69" fill="#ff4d8d" opacity="0.103"/><circle cx="1588" cy="351" r="104" fill="#ff4d8d" opacity="0.147"/><circle cx="427" cy="329" r="23" fill="#ff4d8d" opacity="0.164"/><circle cx="1533" cy="814" r="67" fill="#6b2e2e" opacity="0.131"/><circle cx="847" cy="548" r="66" fill="#ff4d8d" opacity="0.122"/><circle cx="274" cy="100" r="116" fill="#ffd166" opacity="0.078"/><circle cx="706" cy="950" r="50" fill="#ffd166" opacity="0.089"/><circle cx="1454" cy="532" r="49" fill="#6b2e2e" opacity="0.074"/><circle cx="1185" cy="493" r="94" fill="#ffd166" opacity="0.101"/><circle cx="524" cy="428" r="42" fill="#ffd166" opacity="0.058"/><circle cx="385" cy="15" r="112" fill="#ffd166" opacity="0.105"/><circle cx="1647" cy="651" r="17" fill="#ff4d8d" opacity="0.113"/><circle cx="1362" cy="20" r="75" fill="#ffd166" opacity="0.045"/><circle cx="975" cy="673" r="96" fill="#6b2e2e" opacity="0.099"/><circle cx="1312" cy="879" r="31" fill="#ffd166" opacity="0.074"/><circle cx="1003" cy="-64" r="86" fill="#6b2e2e" opacity="0.161"/><circle cx="862" cy="-16" r="62" fill="#ff4d8d" opacity="0.118"/><circle cx="897" cy="488" r="67" fill="#6b2e2e" opacity="0.071"/><circle cx="1364" cy="273" r="30" fill="#ffd166" opacity="0.167"/><circle cx="437" cy="452" r="40" fill="#6b2e2e" opacity="0.042"/><circle cx="60" cy="773" r="101" fill="#6b2e2e" opacity="0.045"/><circle cx="1369" cy="-81" r="57" fill="#ff4d8d" opacity="0.134"/><circle cx="-64" cy="65" r="96" fill="#6b2e2e" opacity="0.06"/><circle cx="1529" cy="771" r="72" fill="#6b2e2e" opacity="0.078"/><circle cx="1109" cy="547" r="74" fill="#ffd166" opacity="0.106"/><circle cx="661" cy="352" r="31" fill="#ff4d8d" opacity="0.139"/><circle cx="743" cy="186" r="43" fill="#ffd166" opacity="0.136"/><circle cx="1323" cy="711" r="90" fill="#ff4d8d" opacity="0.102"/><circle cx="1516" cy="605" r="116" fill="#6b2e2e" opacity="0.076"/><circle cx="217" cy="-46" r="100" fill="#ff4d8d" opacity="0.142"/><circle cx="218" cy="45" r="73" fill="#ff4d8d" opacity="0.073"/><circle cx="848" cy="-3" r="48" fill="#ff4d8d" opacity="0.106"/><circle cx="1090" cy="977" r="77" fill="#ffd166" opacity="0.112"/><circle cx="371" cy="172" r="13" fill="#6b2e2e" opacity="0.07"/><circle cx="482" cy="579" r="66" fill="#ff4d8d" opacity="0.135"/><circle cx="382" cy="446" r="19" fill="#ff4d8d" opacity="0.052"/><circle cx="1101" cy="385" r="42" fill="#ffd166" opacity="0.088"/><circle cx="84" cy="145" r="26" fill="#ffd166" opacity="0.077"/><circle cx="1344" cy="475" r="88" fill="#ffd166" opacity="0.051"/><circle cx="1258" cy="302" r="88" fill="#6b2e2e" opacity="0.092"/><circle cx="836" cy="457" r="35" fill="#ffd166" opacity="0.161"/><circle cx="406" cy="208" r="53" fill="#ffd166" opacity="0.1"/><circle cx="1516" cy="-31" r="12" fill="#6b2e2e" opacity="0.1"/><circle cx="1475" cy="212" r="95" fill="#6b2e2e" opacity="0.177"/><circle cx="28" cy="768" r="75" fill="#6b2e2e" opacity="0.134"/><circle cx="674" cy="881" r="49" fill="#6b2e2e" opacity="0.046"/><circle cx="1490" cy="967" r="77" fill="#6b2e2e" opacity="0.123"/><circle cx="1580" cy="47" r="104" fill="#ffd166" opacity="0.041"/><circle cx="1042" cy="653" r="24" fill="#ff4d8d" opacity="0.092"/><circle cx="50" cy="824" r="11" fill="#ff4d8d" opacity="0.159"/><circle cx="53" cy="-33" r="39" fill="#ffd166" opacity="0.165"/><circle cx="397" cy="15" r="58" fill="#ff4d8d" opacity="0.046"/><circle cx="1305" cy="970" r="11" fill="#6b2e2e" opacity="0.099"/><circle cx="1642" cy="737" r="92" fill="#6b2e2e" opacity="0.047"/><circle cx="1303" cy="70" r="91" fill="#ffd166" opacity="0.146"/><circle cx="1150" cy="718" r="111" fill="#ff4d8d" opacity="0.114"/><circle cx="1276" cy="913" r="76" fill="#6b2e2e" opacity="0.106"/><circle cx="1401" cy="776" r="68" fill="#ff4d8d" opacity="0.119"/><circle cx="1176" cy="-12" r="81" fill="#ff4d8d" opacity="0.136"/><circle cx="1663" cy="240" r="15" fill="#ff4d8d" opacity="0.044"/><circle cx="1068" cy="904" r="24" fill="#6b2e2e" opacity="0.119"/><circle cx="656" cy="828" r="46" fill="#ffd166" opacity="0.145"/><circle cx="1511" cy="4" r="119" fill="#6b2e2e" opacity="0.137"/><circle cx="1523" cy="637" r="31" fill="#ffd166" opacity="0.056"/><circle cx="294" cy="392" r="23" fill="#ffd166" opacity="0.174"/><circle cx="1164" cy="256" r="115" fill="#ffd166" opacity="0.128"/><circle cx="1260" cy="616" r="13" fill="#6b2e2e" opacity="0.09"/><circle cx="1542" cy="14" r="114" fill="#ffd166" opacity="0.125"/><circle cx="460" cy="746" r="89" fill="#ff4d8d" opacity="0.137"/><circle cx="566" cy="118" r="73" fill="#6b2e2e" opacity="0.179"/><circle cx="1498" cy="774" r="19" fill="#6b2e2e" opacity="0.118"/><circle cx="303" cy="507" r="99" fill="#ffd166" opacity="0.093"/><circle cx="1180" cy="234" r="76" fill="#ff4d8d" opacity="0.06"/><circle cx="426" cy="404" r="69" fill="#ff4d8d" opacity="0.179"/><circle cx="-47" cy="-60" r="98" fill="#ffd166" opacity="0.129"/><circle cx="1132" cy="764" r="24" fill="#ff4d8d" opacity="0.171"/><circle cx="-32" cy="550" r="89" fill="#6b2e2e" opacity="0.157"/><circle cx="-64" cy="939" r="119" fill="#ffd166" opacity="0.047"/><circle cx="1334" cy="94" r="72" fill="#6b2e2e" opacity="0.058"/><circle cx="530" cy="775" r="97" fill="#6b2e2e" opacity="0.164"/><circle cx="86" cy="156" r="105" fill="#ff4d8d" opacity="0.148"/><circle cx="371" cy="562" r="48" fill="#6b2e2e" opacity="0.173"/><circle cx="641" cy="677" r="91" fill="#6b2e2e" opacity="0.136"/><circle cx="153" cy="225" r="92" fill="#ffd166" opacity="0.078"/><circle cx="307" cy="906" r="88" fill="#ffd166" opacity="0.137"/><circle cx="1432" cy="704" r="69" fill="#ff4d8d" opacity="0.107"/><circle cx="1475" cy="646" r="39" fill="#ff4d8d" opacity="0.172"/><circle cx="836" cy="724" r="79" fill="#6b2e2e" opacity="0.043"/><circle cx="613" cy="583" r="35" fill="#ff4d8d" opacity="0.101"/><circle cx="1472" cy="946" r="31" fill="#6b2e2e" opacity="0.091"/><circle cx="1580" cy="187" r="57" fill="#6b2e2e" opacity="0.122"/><circle cx="193" cy="278" r="46" fill="#ff4d8d" opacity="0.103"/><circle cx="29" cy="492" r="8" fill="#ffd166" opacity="0.166"/><circle cx="1189" cy="782" r="51" fill="#ffd166" opacity="0.16"/><circle cx="797" cy="283" r="32" fill="#6b2e2e" opacity="0.079"/><circle cx="478" cy="201" r="12" fill="#ffd166" opacity="0.109"/><circle cx="780" cy="721" r="98" fill="#ff4d8d" opacity="0.075"/><circle cx="899" cy="722" r="111" fill="#6b2e2e" opacity="0.162"/><circle cx="644" cy="699" r="29" fill="#6b2e2e" opacity="0.059"/><circle cx="1271" cy="40" r="99" fill="#ff4d8d" opacity="0.176"/><circle cx="652" cy="637" r="18" fill="#ff4d8d" opacity="0.15"/><circle cx="191" cy="341" r="68" fill="#ff4d8d" opacity="0.084"/><circle cx="252" cy="312" r="60" fill="#6b2e2e" opacity="0.168"/><circle cx="1190" cy="281" r="82" fill="#ff4d8d" opacity="0.132"/><circle cx="360" cy="137" r="66" fill="#6b2e2e" opacity="0.081"/><circle cx="396" cy="683" r="104" fill="#ff4d8d" opacity="0.174"/><circle cx="925" cy="-44" r="113" fill="#ffd166" opacity="0.132"/><circle cx="1465" cy="698" r="94" fill="#ffd166" opacity="0.109"/><circle cx="1538" cy="625" r="49" fill="#6b2e2e" opacity="0.049"/><circle cx="1178" cy="652" r="111" fill="#ff4d8d" opacity="0.067"/><circle cx="1244" cy="85" r="90" fill="#ff4d8d" opacity="0.137"/><circle cx="1582" cy="863" r="13" fill="#ffd166" opacity="0.111"/><circle cx="1302" cy="-57" r="19" fill="#6b2e2e" opacity="0.147"/><circle cx="989" cy="874" r="11" fill="#ff4d8d" opacity="0.117"/><circle cx="1683" cy="140" r="69" fill="#6b2e2e" opacity="0.116"/><circle cx="346" cy="155" r="68" fill="#ff4d8d" opacity="0.129"/><circle cx="832" cy="66" r="12" fill="#6b2e2e" opacity="0.179"/><circle cx="1577" cy="601" r="103" fill="#ff4d8d" opacity="0.119"/><circle cx="1337" cy="417" r="35" fill="#6b2e2e" opacity="0.058"/><circle cx="1544" cy="52" r="45" fill="#6b2e2e" opacity="0.141"/><circle cx="44" cy="210" r="18" fill="#ff4d8d" opacity="0.13"/><circle cx="1198" cy="534" r="71" fill="#6b2e2e" opacity="0.114"/><circle cx="204" cy="246" r="40" fill="#ffd166" opacity="0.142"/><circle cx="1691" cy="274" r="30" fill="#6b2e2e" opacity="0.164"/><circle cx="268" cy="644" r="116" fill="#ffd166" opacity="0.128"/><circle cx="384" cy="963" r="72" fill="#ff4d8d" opacity="0.09"/><circle cx="937" cy="195" r="113" fill="#ffd166" opacity="0.176"/><circle cx="1127" cy="711" r="115" fill="#ff4d8d" opacity="0.109"/><circle cx="1291" cy="355" r="73" fill="#ffd166" opacity="0.137"/><circle cx="870" cy="373" r="41" fill="#ff4d8d" opacity="0.153"/><circle cx="525" cy="840" r="16" fill="#6b2e2e" opacity="0.098"/><circle cx="73" cy="599" r="108" fill="#ff4d8d" opacity="0.177"/><circle cx="1435" cy="183" r="27" fill="#ff4d8d" opacity="0.072"/><circle cx="127" cy="244" r="32" fill="#ffd166" opacity="0.08"/><circle cx="103" cy="855" r="88" fill="#ff4d8d" opacity="0.072"/><circle cx="967" cy="245" r="118" fill="#6b2e2e" opacity="0.163"/><circle cx="1031" cy="857" r="30" fill="#ff4d8d" opacity="0.156"/><circle cx="787" cy="614" r="38" fill="#6b2e2e" opacity="0.095"/><circle cx="1463" cy="769" r="91" fill="#ffd166" opacity="0.128"/><circle cx="242" cy="993" r="15" fill="#ff4d8d" opacity="0.056"/><circle cx="1293" cy="942" r="48" fill="#ff4d8d" opacity="0.176"/><circle cx="1545" cy="621" r="114" fill="#ffd166" opacity="0.058"/><circle cx="822" cy="947" r="17" fill="#ffd166" opacity="0.123"/><circle cx="1161" cy="93" r="102" fill="#ff4d8d" opacity="0.077"/><circle cx="1179" cy="182" r="38" fill="#ffd166" opacity="0.062"/><circle cx="1598" cy="62" r="41" fill="#ffd166" opacity="0.119"/><circle cx="1467" cy="552" r="78" fill="#ff4d8d" opacity="0.158"/><circle cx="1329" cy="858" r="49" fill="#ffd166" opacity="0.115"/><circle cx="1267" cy="462" r="30" fill="#6b2e2e" opacity="0.089"/><circle cx="-15" cy="730" r="8" fill="#6b2e2e" opacity="0.102"/><circle cx="977" cy="597" r="92" fill="#ff4d8d" opacity="0.051"/><circle cx="1116" cy="325" r="95" fill="#ff4d8d" opacity="0.05"/><circle cx="694" cy="285" r="10" fill="#ff4d8d" opacity="0.148"/><circle cx="1453" cy="830" r="105" fill="#6b2e2e" opacity="0.077"/><circle cx="1053" cy="300" r="67" fill="#ffd166" opacity="0.054"/><circle cx="213" cy="521" r="111" fill="#6b2e2e" opacity="0.062"/><circle cx="873" cy="673" r="80" fill="#6b2e2e" opacity="0.099"/><circle cx="403" cy="508" r="24" fill="#ffd166" opacity="0.177"/><circle cx="1090" cy="542" r="31" fill="#ffd166" opacity="0.09"/><circle cx="1573" cy="844" r="75" fill="#ffd166" opacity="0.056"/><circle cx="691" cy="-52" r="81" fill="#ffd166" opacity="0.042"/><circle cx="875" cy="161" r="91" fill="#ff4d8d" opacity="0.043"/><circle cx="1617" cy="82" r="106" fill="#6b2e2e" opacity="0.135"/><circle cx="769" cy="906" r="53" fill="#ff4d8d" opacity="0.151"/><circle cx="1095" cy="384" r="76" fill="#ffd166" opacity="0.12"/><circle cx="787" cy="511" r="120" fill="#6b2e2e" opacity="0.107"/><circle cx="-45" cy="847" r="36" fill="#ffd166" opacity="0.163"/><circle cx="1020" cy="745" r="15" fill="#6b2e2e" opacity="0.049"/><circle cx="1395" cy="523" r="34" fill="#ffd166" opacity="0.046"/><circle cx="927" cy="902" r="71" fill="#6b2e2e" opacity="0.042"/><circle cx="85" cy="416" r="62" fill="#ffd166" opacity="0.147"/><circle cx="1429" cy="36" r="52" fill="#6b2e2e" opacity="0.152"/><circle cx="1391" cy="804" r="43" fill="#ff4d8d" opacity="0.148"/><circle cx="74" cy="73" r="39" fill="#6b2e2e" opacity="0.063"/><circle cx="1508" cy="-20" r="18" fill="#ffd166" opacity="0.082"/><circle cx="1366" cy="86" r="89" fill="#ff4d8d" opacity="0.083"/><circle cx="335" cy="465" r="56" fill="#ffd166" opacity="0.087"/><circle cx="193" cy="131" r="93" fill="#ffd166" opacity="0.09"/><circle cx="150" cy="-19" r="17" fill="#ffd166" opacity="0.084"/><circle cx="1689" cy="-100" r="67" fill="#6b2e2e" opacity="0.075"/><circle cx="253" cy="930" r="37" fill="#6b2e2e" opacity="0.097"/><circle cx="318" cy="485" r="25" fill="#ff4d8d" opacity="0.084"/><circle cx="604" cy="262" r="100" fill="#6b2e2e" opacity="0.054"/><circle cx="471" cy="727" r="49" fill="#ffd166" opacity="0.172"/>
<rect width="1600" height="900" filter="url(#grain)" opacity="0.7"/>
</svg>