<svg xmlns="http://www.w3.org/2000/svg" width="1600" height="900" viewBox="0 0 1600 900">
<defs>
  <linearGradient id="sky" x1="0" y1="0" x2="0" y2="1">
    <stop offset="0" stop-color="#1b1b2e"/><stop offset="1" stop-color="#07070d"/>
  </linearGradient>
  <linearGradient id="mist" x1="0" y1="0" x2="1" y2="0">
    <stop offset="0" stop-color="rgba(255,255,255,0.14)"/><stop offset="1" stop-color="rgba(255,255,255,0.02)"/>
  </linearGradient>
  <filter id="grain">
    <feTurbulence type="fractalNoise" baseFrequency="0.9" numOctaves="2" stitchTiles="stitch"/>
    <feColorMatrix type="matrix" values="1 0 0 0 0  0 1 0 0 0  0 0 1 0 0  0 0 0 .08 0"/>
  </filter>
</defs>
<rect width="1600" height="900" fill="url(#sky)"/>
<g opacity="0.95">
  <path d="M0,720 C240,640 360,780 560,710 C760,640 980,780 1200,710 C1360,660 1480,700 1600,660 L1600,900 L0,900 Z" fill="#0d2018"/>
  <path d="M0,760 C260,700 360,820 560,760 C760,700 980,820 1220,760 C1400,715 1510,760 1600,720 L1600,900 L0,900 Z" fill="#10261c" opacity="0.95"/>
</g>
<g opacity="0.95">
  <g fill="#0c1510">
    <rect x="120" y="233" width="49" height="656" rx="18"/><rect x="260" y="255" width="51" height="636" rx="18"/><rect x="420" y="255" width="52" height="592" rx="18"/><rect x="640" y="191" width="35" height="542" rx="18"/><rect x="820" y="256" width="41" height="548" rx="18"/><rect x="1020" y="170" width="49" height="634" rx="18"/><rect x="1180" y="195" width="45" height="584" rx="18"/><rect x="1380" y="209" width="50" height="633" rx="18"/>
  </g>
  <g fill="#102015" opacity="0.85">
    <circle cx="148" cy="176" r="134"/><circle cx="300" cy="230" r="151"/><circle cx="437" cy="160" r="143"/><circle cx="640" cy="216" r="159"/><circle cx="840" cy="151" r="125"/><circle cx="1042" cy="140" r="140"/><circle cx="1184" cy="198" r="120"/><circle cx="1386" cy="146" r="143"/>
  </g>
</g>
<rect y="520" width="1600" height="260" fill="url(#mist)" opacity="0.55"/>
<rect y="590" width="1600" height="220" fill="url(#mist)" opacity="0.35"/>
<rect width="1600" height="900" filter="url(#grain)" opacity="0.75"/>
</svg>