<svg xmlns="http://www.w3.org/2000/svg" width="1600" height="900" viewBox="0 0 1600 900">
<defs>
  <linearGradient id="g" x1="0" y1="0" x2="0" y2="1">
    <stop offset="0" stop-color="#23102a"/>
    <stop offset="1" stop-color="#07070d"/>
  </linearGradient>
  <filter id="grain">
    <feTurbulence type="fractalNoise" baseFrequency="0.8" numOctaves="2" stitchTiles="stitch"/>
    <feColorMatrix type="matrix" values="1 0 0 0 0  0 1 0 0 0  0 0 1 0 0  0 0 0 .08 0"/>
  </filter>
</defs>
<rect width="1600" height="900" fill="url(#g)"/>
<circle cx="471" cy="910" r="65" fill="#ff4d8d" opacity="0.112"/><circle cx="1352" cy="746" r="84" fill="#ffd166" opacity="0.13"/><circle cx="122" cy="28" r="31" fill="#ffd166" opacity="0.129"/><circle cx="69" cy="976" r="78" fill="#ffd166" opacity="0.167"/><circle cx="79" cy="-8" r="115" fill="#7c5cff" opacity="0.167"/><circle cx="1144" cy="-93" r="60" fill="#ff4d8d" opacity="0.041"/><circle cx="639" cy="-75" r="14" fill="#ffd166" opacity="0.123"/><circle cx="1391" cy="113" r="25" fill="#ffd166" opacity="0.053"/><circle cx="389" cy="-82" r="108" fill="#ff4d8d" opacity="0.052"/><circle cx="1140" cy="165" r="33" fill="#ff4d8d" opacity="0.124"/><circle cx="973" cy="186" r="25" fill="#ff4d8d" opacity="0.063"/><circle cx="411" cy="940" r="72" fill="#ffd166" opacity="0.146"/><circle cx="235" cy="774" r="108" fill="#7c5cff" opacity="0.088"/><circle cx="1006" cy="636" r="10" fill="#7c5cff" opacity="0.049"/><circle cx="1368" cy="938" r="80" fill="#7c5cff" opacity="0.119"/><circle cx="187" cy="851" r="14" fill="#ffd166" opacity="0.079"/><circle cx="491" cy="71" r="62" fill="#ff4d8d" opacity="0.143"/><circle cx="564" cy="45" r="15" fill="#ffd166" opacity="0.144"/><circle cx="46" cy="491" r="66" fill="#ffd166" opacity="0.091"/><circle cx="229" cy="254" r="67" fill="#ffd166" opacity="0.062"/><circle cx="186" cy="275" r="84" fill="#7c5cff" opacity="0.053"/><circle cx="1678" cy="86" r="70" fill="#ffd166" opacity="0.082"/><circle cx="1141" cy="20" r="62" fill="#7c5cff" opacity="0.061"/><circle cx="665" cy="507" r="57" fill="#ffd166" opacity="0.167"/><circle cx="1437" cy="479" r="78" fill="#ff4d8d" opacity="0.068"/><circle cx="-8" cy="191" r="89" fill="#ff4d8d" opacity="0.067"/><circle cx="1373" cy="892" r="112" fill="#ffd166" opacity="0.161"/><circle cx="283" cy="815" r="67" fill="#7c5cff" opacity="0.11"/><circle cx="803" cy="57" r="53" fill="#ffd166" opacity="0.18"/><circle cx="1117" cy="487" r="44" fill="#ff4d8d" opacity="0.092"/><circle cx="1668" cy="702" r="70" fill="#ffd166" opacity="0.165"/><circle cx="1082" cy="455" r="84" fill="#ff4d8d" opacity="0.079"/><circle cx="93" cy="283" r="107" fill="#7c5cff" opacity="0.165"/><circle cx="619" cy="689" r="28" fill="#ff4d8d" opacity="0.133"/><circle cx="1533" cy="411" r="52" fill="#7c5cff" opacity="0.147"/><circle cx="275" cy="940" r="46" fill="#ff4d8d" opacity="0.113"/><circle cx="511" cy="788" r="10" fill="#ffd166" opacity="0.105"/><circle cx="850" cy="854" r="30" fill="#ffd166" opacity="0.082"/><circle cx="324" cy="614" r="46" fill="#7c5cff" opacity="0.147"/><circle cx="1450" cy="751" r="77" fill="#ffd166" opacity="0.109"/><circle cx="118" cy="637" r="28" fill="#7c5cff" opacity="0.09"/><circle cx="794" cy="735" r="82" fill="#ffd166" opacity="0.05"/><circle cx="1255" cy="-8" r="73" fill="#ffd166" opacity="0.055"/><circle cx="208" cy="589" r="72" fill="#ff4d8d" opacity="0.093"/><circle cx="296" cy="673" r="76" fill="#7c5cff" opacity="0.164"/><circle cx="439" cy="867" r="71" fill="#ffd166" opacity="0.048"/><circle cx="15" cy="170" r="61" fill="#ff4d8d" opacity="0.146"/><circle cx="1001" cy="844" r="71" fill="#ffd166" opacity="0.129"/><circle cx="702" cy="881" r="19" fill="#ff4d8d" opacity="0.055"/><circle cx="-47" cy="955" r="55" fill="#ff4d8d" opacity="0.072"/><circle cx="1665" cy="115" r="56" fill="#7c5cff" opacity="0.056"/><circle cx="566" cy="395" r="10" fill="#7c5cff" opacity="0.113"/><circle cx="1352" cy="362" r="111" fill="#ff4d8d" opacity="0.043"/><circle cx="1112" cy="381" r="13" fill="#ff4d8d" opacity="0.048"/><circle cx="1610" cy="-67" r="71" fill="#7c5cff" opacity="0.146"/><circle cx="270" cy="598" r="74" fill="#7c5cff" opacity="0.164"/><circle cx="230" cy="618" r="80" fill="#7c5cff" opacity="0.174"/><circle cx="1288" cy="85" r="35" fill="#7c5cff" opacity="0.141"/><circle cx="923" cy="-91" r="77" fill="#ffd166" opacity="0.087"/><circle cx="1080" cy="530" r="83" fill="#ff4d8d" opacity="0.053"/><circle cx="996" cy="-8" r="75" fill="#7c5cff" opacity="0.158"/><circle cx="1516" cy="714" r="12" fill="#7c5cff" opacity="0.078"/><circle cx="523" cy="779" r="16" fill="#7c5cff" opacity="0.164"/><circle cx="1607" cy="252" r="92" fill="#ffd166" opacity="0.167"/><circle cx="521" cy="374" r="36" fill="#7c5cff" opacity="0.129"/><circle cx="1665" cy="452" r="100" fill="#ff4d8d" opacity="0.05"/><circle cx="1569" cy="430" r="10" fill="#7c5cff" opacity="0.041"/><circle cx="1595" cy="354" r="115" fill="#ffd166" opacity="0.131"/><circle cx="1262" cy="-52" r="94" fill="#7c5cff" opacity="0.042"/><circle cx="1054" cy="840" r="51" fill="#ffd166" opacity="0.113"/><circle cx="915" cy="452" r="61" fill="#ffd166" opacity="0.041"/><circle cx="438" cy="-68" r="51" fill="#ff4d8d" opacity="0.101"/><circle cx="1528" cy="353" r="103" fill="#7c5cff" opacity="0.158"/><circle cx="232" cy="60" r="89" fill="#7c5cff" opacity="0.108"/><circle cx="91" cy="382" r="36" fill="#ff4d8d" opacity="0.053"/><circle cx="492" cy="97" r="22" fill="#ffd166" opacity="0.104"/><circle cx="279" cy="898" r="116" fill="#7c5cff" opacity="0.092"/><circle cx="1315" cy="-55" r="77" fill="#ffd166" opacity="0.098"/><circle cx="673" cy="-97" r="52" fill="#ff4d8d" opacity="0.136"/><circle cx="465" cy="139" r="111" fill="#ff4d8d" opacity="0.084"/><circle cx="570" cy="74" r="110" fill="#ffd166" opacity="0.082"/><circle cx="1045" cy="700" r="84" fill="#7c5cff" opacity="0.065"/><circle cx="799" cy="828" r="106" fill="#7c5cff" opacity="0.078"/><circle cx="-21" cy="201" r="56" fill="#ff4d8d" opacity="0.076"/><circle cx="416" cy="750" r="114" fill="#7c5cff" opacity="0.092"/><circle cx="1617" cy="327" r="41" fill="#7c5cff" opacity="0.136"/><circle cx="430" cy="-54" r="97" fill="#ff4d8d" opacity="0.16"/><circle cx="494" cy="263" r="60" fill="#ffd166" opacity="0.067"/><circle cx="1692" cy="213" r="38" fill="#ff4d8d" opacity="0.146"/><circle cx="836" cy="675" r="78" fill="#ffd166" opacity="0.136"/><circle cx="298" cy="561" r="74" fill="#7c5cff" opacity="0.041"/><circle cx="1457" cy="996" r="17" fill="#ff4d8d" opacity="0.149"/><circle cx="108" cy="234" r="25" fill="#7c5cff" opacity="0.085"/><circle cx="420" cy="365" r="103" fill="#ffd166" opacity="0.115"/><circle cx="899" cy="131" r="23" fill="#7c5cff" opacity="0.077"/><circle cx="435" cy="752" r="48" fill="#ffd166" opacity="0.1"/><circle cx="1003" cy="140" r="30" fill="#ffd166" opacity="0.089"/><circle cx="720" cy="42" r="24" fill="#7c5cff" opacity="0.149"/><circle cx="1319" cy="180" r="43" fill="#ffd166" opacity="0.075"/><circle cx="1245" cy="-53" r="18" fill="#ff4d8d" opacity="0.067"/><circle cx="724" cy="-28" r="113" fill="#7c5cff" opacity="0.079"/><circle cx="1525" cy="639" r="81" fill="#ffd166" opacity="0.145"/><circle cx="1163" cy="185" r="76" fill="#ffd166" opacity="0.044"/><circle cx="1278" cy="200" r="17" fill="#ffd166" opacity="0.08"/><circle cx="741" cy="648" r="46" fill="#ff4d8d" opacity="0.16"/><circle cx="467" cy="870" r="66" fill="#ffd166" opacity="0.138"/><circle cx="718" cy="978" r="46" fill="#ff4d8d" opacity="0.135"/><circle cx="1126" cy="11" r="42" fill="#ff4d8d" opacity="0.041"/><circle cx="1332" cy="-67" r="74" fill="#7c5cff" opacity="0.147"/><circle cx="872" cy="6" r="45" fill="#ffd166" opacity="0.155"/><circle cx="792" cy="396" r="84" fill="#ffd166" opacity="0.06"/><circle cx="324" cy="964" r="75" fill="#ff4d8d" opacity="0.082"/><circle cx="571" cy="487" r="105" fill="#ffd166" opacity="0.116"/><circle cx="614" cy="909" r="67" fill="#ffd166" opacity="0.18"/><circle cx="289" cy="378" r="104" fill="#7c5cff" opacity="0.088"/><circle cx="1418" cy="246" r="119" fill="#7c5cff" opacity="0.096"/><circle cx="-19" cy="684" r="116" fill="#ff4d8d" opacity="0.105"/><circle cx="-83" cy="473" r="36" fill="#ff4d8d" opacity="0.047"/><circle cx="757" cy="951" r="107" fill="#7c5cff" opacity="0.15"/><circle cx="1055" cy="760" r="61" fill="#7c5cff" opacity="0.11"/><circle cx="323" cy="75" r="92" fill="#ff4d8d" opacity="0.149"/><circle cx="1046" cy="865" r="66" fill="#ffd166" opacity="0.1"/><circle cx="231" cy="799" r="111" fill="#7c5cff" opacity="0.088"/><circle cx="1404" cy="598" r="18" fill="#ff4d8d" opacity="0.104"/><circle cx="732" cy="69" r="8" fill="#7c5cff" opacity="0.086"/><circle cx="1209" cy="281" r="43" fill="#7c5cff" opacity="0.159"/><circle cx="979" cy="836" r="65" fill="#ff4d8d" opacity="0.175"/><circle cx="1376" cy="264" r="98" fill="#ff4d8d" opacity="0.124"/><circle cx="1285" cy="90" r="69" fill="#ff4d8d" opacity="0.171"/><circle cx="787" cy="586" r="11" fill="#7c5cff" opacity="0.156"/><circle cx="1476" cy="15" r="63" fill="#7c5cff" opacity="0.073"/><circle cx="1056" cy="507" r="50" fill="#ff4d8d" opacity="0.131"/><circle cx="236" cy="507" r="108" fill="#ffd166" opacity="0.107"/><circle cx="206" cy="110" r="71" fill="#ffd166" opacity="0.09"/><circle cx="20" cy="-82" r="118" fill="#ff4d8d" opacity="0.112"/><circle cx="234" cy="118" r="90" fill="#ff4d8d" opacity="0.08"/><circle cx="1277" cy="846" r="23" fill="#ff4d8d" opacity="0.073"/><circle cx="745" cy="766" r="84" fill="#ffd166" opacity="0.106"/><circle cx="1609" cy="-38" r="66" fill="#ff4d8d" opacity="0.097"/><circle cx="1519" cy="118" r="19" fill="#7c5cff" opacity="0.165"/><circle cx="404" cy="649" r="36" fill="#ff4d8d" opacity="0.157"/><circle cx="1095" cy="-68" r="54" fill="#ffd166" opacity="0.117"/><circle cx="801" cy="628" r="8" fill="#ffd166" opacity="0.139"/><circle cx="816" cy="536" r="105" fill="#ff4d8d" opacity="0.135"/><circle cx="1021" cy="59" r="84" fill="#ffd166" opacity="0.09"/><circle cx="1465" cy="383" r="95" fill="#ff4d8d" opacity="0.06"/><circle cx="251" cy="745" r="112" fill="#ff4d8d" opacity="0.153"/><circle cx="390" cy="399" r="103" fill="#ff4d8d" opacity="0.118"/><circle cx="1112" cy="296" r="102" fill="#ffd166" opacity="0.064"/><circle cx="356" cy="455" r="15" fill="#ffd166" opacity="0.071"/><circle cx="459" cy="727" r="68" fill="#ffd166" opacity="0.134"/><circle cx="1689" cy="956" r="79" fill="#7c5cff" opacity="0.071"/><circle cx="-50" cy="16" r="104" fill="#ff4d8d" opacity="0.081"/><circle cx="1314" cy="-19" r="10" fill="#ff4d8d" opacity="0.121"/><circle cx="112" cy="-69" r="62" fill="#ffd166" opacity="0.123"/><circle cx="1331" cy="405" r="49" fill="#ff4d8d" opacity="0.095"/><circle cx="1343" cy="471" r="61" fill="#7c5cff" opacity="0.108"/><circle cx="803" cy="-36" r="10" fill="#ff4d8d" opacity="0.086"/><circle cx="146" cy="445" r="22" fill="#7c5cff" opacity="0.176"/><circle cx="1326" cy="-3" r="58" fill="#7c5cff" opacity="0.054"/><circle cx="811" cy="456" r="105" fill="#7c5cff" opacity="0.041"/><circle cx="808" cy="41" r="80" fill="#ff4d8d" opacity="0.076"/><circle cx="102" cy="819" r="46" fill="#ff4d8d" opacity="0.072"/><circle cx="265" cy="189" r="114" fill="#ffd166" opacity="0.043"/><circle cx="1278" cy="432" r="13" fill="#ffd166" opacity="0.133"/><circle cx="741" cy="659" r="111" fill="#ffd166" opacity="0.06"/><circle cx="1089" cy="321" r="107" fill="#ff4d8d" opacity="0.149"/><circle cx="1303" cy="-29" r="61" fill="#7c5cff" opacity="0.095"/><circle cx="47" cy="312" r="95" fill="#ff4d8d" opacity="0.049"/><circle cx="1599" cy="207" r="115" fill="#ff4d8d" opacity="0.043"/><circle cx="685" cy="763" r="108" fill="#ff4d8d" opacity="0.045"/><circle cx="412" cy="357" r="76" fill="#ff4d8d" opacity="0.05"/><circle cx="850" cy="127" r="66" fill="#ff4d8d" opacity="0.077"/><circle cx="910" cy="582" r="71" fill="#7c5cff" opacity="0.076"/><circle cx="193" cy="926" r="35" fill="#ff4d8d" opacity="0.078"/><circle cx="909" cy="842" r="65" fill="#7c5cff" opacity="0.043"/><circle cx="1380" cy="737" r="35" fill="#7c5cff" opacity="0.122"/><circle cx="1053" cy="677" r="91" fill="#7c5cff" opacity="0.04"/><circle cx="1629" cy="464" r="22" fill="#7c5cff" opacity="0.116"/><circle cx="839" cy="266" r="71" fill="#ffd166" opacity="0.15"/><circle cx="627" cy="297" r="11" fill="#7c5cff" opacity="0.137"/><circle cx="1366" cy="932" r="98" fill="#ffd166" opacity="0.141"/><circle cx="1532" cy="375" r="38" fill="#7c5cff" opacity="0.165"/><circle cx="1292" cy="417" r="28" fill="#ffd166" opacity="0.043"/><circle cx="1101" cy="338" r="18" fill="#ffd166" opacity="0.175"/><circle cx="1382" cy="965" r="12" fill="#ff4d8d" opacity="0.067"/><circle cx="914" cy="-62" r="31" fill="#7c5cff" opacity="0.11"/><circle cx="732" cy="567" r="110" fill="#ffd166" opacity="0.179"/><circle cx="1126" cy="608" r="11" fill="#7c5cff" opacity="0.156"/><circle cx="646" cy="6" r="73" fill="#ffd166" opacity="0.18"/><circle cx="1661" cy="965" r="117" fill="#7c5cff" opacity="0.166"/><circle cx="832" cy="331" r="42" fill="#7c5cff" opacity="0.047"/><circle cx="337" cy="310" r="46" fill="#ff4d8d" opacity="0.051"/><circle cx="1391" cy="936" r="22" fill="#7c5cff" opacity="0.175"/><circle cx="892" cy="-72" r="55" fill="#ff4d8d" opacity="0.176"/><circle cx="-41" cy="497" r="45" fill="#ff4d8d" opacity="0.151"/><circle cx="909" cy="264" r="40" fill="#ff4d8d" opacity="0.159"/><circle cx="577" cy="140" r="11" fill="#ffd166" opacity="0.125"/><circle cx="1577" cy="262" r="64" fill="#ff4d8d" opacity="0.122"/><circle cx="272" cy="60" r="78" fill="#7c5cff" opacity="0.068"/><circle cx="1436" cy="-15" r="25" fill="#7c5cff" opacity="0.119"/><circle cx="1582" cy="193" r="16" fill="#ff4d8d" opacity="0.047"/><circle cx="172" cy="576" r="119" fill="#ff4d8d" opacity="0.163"/><circle cx="486" cy="-70" r="75" fill="#ff4d8d" opacity="0.078"/><circle cx="712" cy="577" r="25" fill="#ffd166" opacity="0.046"/><circle cx="673" cy="921" r="105" fill="#ffd166" opacity="0.157"/><circle cx="1455" cy="670" r="23" fill="#ff4d8d" opacity="0.107"/><circle cx="1169" cy="438" r="105" fill="#ffd166" opacity="0.078"/><circle cx="67" cy="193" r="22" fill="#7c5cff" opacity="0.114"/><circle cx="622" cy="588" r="9" fill="#ff4d8d" opacity="0.065"/>
<rect width="1600" height="900" filter="url(#grain)" opacity="0.7"/>
</svg>